<?xml version="1.0" encoding="UTF-8"?>
<svg version="1.1" xmlns="http://www.w3.org/2000/svg" width="169" height="43">
<path d="M0 0 C1.25487968 -0.00503792 1.25487968 -0.00503792 2.53511047 -0.01017761 C5.28855899 -0.01964218 8.04194641 -0.02162841 10.79541016 -0.02270508 C12.71823145 -0.02592061 14.6410525 -0.02928491 16.56387329 -0.03279114 C20.59027676 -0.03877104 24.61665881 -0.04063219 28.64306641 -0.04003906 C33.78980796 -0.03993747 38.93641149 -0.05359219 44.08312035 -0.07081127 C48.05350368 -0.08195612 52.02385388 -0.08395751 55.99425125 -0.08342934 C57.89116517 -0.0846056 59.78808005 -0.08900747 61.68497849 -0.0967617 C64.34346815 -0.10661251 67.00166132 -0.10366363 69.66015625 -0.09765625 C70.82314491 -0.10608551 70.82314491 -0.10608551 72.0096283 -0.11468506 C77.9624146 -0.08068406 83.47572513 0.69164308 88.89697266 3.33276367 C91.2208229 6.02842995 91.19796479 8.68028446 91.45947266 12.14526367 C92.12333984 12.15944336 92.78720703 12.17362305 93.47119141 12.18823242 C97.79012506 12.42151789 100.80005556 12.76280175 104.58447266 14.95776367 C107.48917246 19.89575334 107.14059101 24.56009321 106.45947266 30.14526367 C105.20627072 34.11373646 104.39429429 35.54796278 100.90829468 37.77532959 C96.57260526 39.49754334 93.01974256 39.55282195 88.40332031 39.50170898 C87.5113092 39.50375336 86.6192981 39.50579773 85.70025635 39.50790405 C82.75780563 39.51090575 79.81591919 39.49243773 76.87353516 39.47338867 C74.81293882 39.47032694 72.75234042 39.46845397 70.69174194 39.4677124 C66.36928391 39.46311145 62.04701238 39.44870433 57.72460938 39.42651367 C52.22669072 39.39840942 46.72891971 39.38731879 41.23093605 39.38283157 C35.94511733 39.37762921 30.65933432 39.36311423 25.37353516 39.34838867 C24.38440754 39.34650795 23.39527992 39.34462723 22.37617874 39.34268951 C-11.54355549 39.25946588 -11.54355549 39.25946588 -17.54052734 36.14526367 C-20.270849 31.95226969 -21.04671661 28.08337103 -21.54052734 23.14526367 C-22.48927734 23.94963867 -23.43802734 24.75401367 -24.41552734 25.58276367 C-28.31966817 28.89279611 -31.04107356 29.60443265 -36.14990234 29.56323242 C-40.28556153 28.84016783 -42.91980058 26.31046276 -45.54052734 23.14526367 C-47.76308984 19.35427079 -47.99648615 16.55286542 -47.54052734 12.14526367 C-45.09910924 7.35632816 -42.42564106 4.41335218 -37.54052734 2.14526367 C-33.5166259 1.82623312 -29.5673056 1.91069406 -25.54052734 2.14526367 C-25.21052734 3.13526367 -24.88052734 4.12526367 -24.54052734 5.14526367 C-22.06552734 5.64026367 -22.06552734 5.64026367 -19.54052734 6.14526367 C-19.21052734 5.15526367 -18.88052734 4.16526367 -18.54052734 3.14526367 C-13.12606291 -0.46437928 -6.25950268 -0.00363974 0 0 Z M-22.54052734 8.14526367 C-21.55052734 9.63026367 -21.55052734 9.63026367 -20.54052734 11.14526367 C-20.54052734 10.15526367 -20.54052734 9.16526367 -20.54052734 8.14526367 C-21.20052734 8.14526367 -21.86052734 8.14526367 -22.54052734 8.14526367 Z " fill="#0301F5" transform="translate(56.54052734375,3.854736328125)"/>
<path d="M0 0 C-0.66 0.99 -1.32 1.98 -2 3 C0.64 3.33 3.28 3.66 6 4 C6.625 6.3125 6.625 6.3125 7 9 C6.34 9.99 5.68 10.98 5 12 C5.66 12 6.32 12 7 12 C7 12.66 7 13.32 7 14 C8.32 14 9.64 14 11 14 C10.505 13.62875 10.01 13.2575 9.5 12.875 C7.40244486 10.25305607 7.78256165 8.26157528 8 5 C10.24512262 3.87743869 11.51456649 3.86586238 14 3.875 C15.051875 3.87113281 15.051875 3.87113281 16.125 3.8671875 C18 4 18 4 20 5 C22.00800456 4.71887936 24.01014051 4.38932033 26 4 C26.99 6.31 27.98 8.62 29 11 C30.65 9.68 32.3 8.36 34 7 C32.02 6.67 30.04 6.34 28 6 C28.33 5.34 28.66 4.68 29 4 C38.57 4 48.14 4 58 4 C58.495 6.475 58.495 6.475 59 9 C58.34 9.99 57.68 10.98 57 12 C59.31 12.33 61.62 12.66 64 13 C64 13.99 64 14.98 64 16 C67.63 16 71.26 16 75 16 C73 20 73 20 70 22 C71.98 22.495 71.98 22.495 74 23 C74 23.66 74 24.32 74 25 C71.03 25 68.06 25 65 25 C67 21 67 21 69 19 C66.03 19 63.06 19 60 19 C59.67 21.64 59.34 24.28 59 27 C55.24329669 27.96600942 52.75750219 27.77076968 49 27 C47.65737935 27.29369827 46.32303717 27.6278958 45 28 C43.33376361 28.03786901 41.66602403 28.04627845 40 28 C39.505 27.01 39.505 27.01 39 26 C36.97536745 25.34786708 36.97536745 25.34786708 35 25 C35 24.34 35 23.68 35 23 C36.98 23 38.96 23 41 23 C41 21.68 41 20.36 41 19 C40.01 18.34 39.02 17.68 38 17 C39.65 16.34 41.3 15.68 43 15 C40.69 15 38.38 15 36 15 C36 15.66 36 16.32 36 17 C35.34 17 34.68 17 34 17 C34 16.01 34 15.02 34 14 C31.36 14.33 28.72 14.66 26 15 C28.31 15.33 30.62 15.66 33 16 C33 16.66 33 17.32 33 18 C32.01 18 31.02 18 30 18 C30 19.98 30 21.96 30 24 C28.68 24.66 27.36 25.32 26 26 C26 23.36 26 20.72 26 18 C25.46375 18.185625 24.9275 18.37125 24.375 18.5625 C21.38009386 19.11419324 18.96254171 18.60597444 16 18 C16.57452746 21.93075644 16.57452746 21.93075644 19 25 C15.75791433 24.64950425 14.38472296 24.43778819 12.1875 21.9375 C11.795625 21.298125 11.40375 20.65875 11 20 C9.02 20.99 9.02 20.99 7 22 C8.32 22.66 9.64 23.32 11 24 C10 25 10 25 6.4375 25.0625 C5.303125 25.041875 4.16875 25.02125 3 25 C2.505 23.02 2.505 23.02 2 21 C1.01 22.32 0.02 23.64 -1 25 C-1.99 24.67 -2.98 24.34 -4 24 C-3.67 22.35 -3.34 20.7 -3 19 C-3.20625 19.5775 -3.4125 20.155 -3.625 20.75 C-5.49750888 23.81410544 -7.96958519 25.15539968 -11 27 C-10.34 27.99 -9.68 28.98 -9 30 C-10.19625 29.835 -11.3925 29.67 -12.625 29.5 C-16.10548715 29.06029433 -19.48771488 28.91219287 -23 29 C-23 28.01 -23 27.02 -23 26 C-23.99 25.67 -24.98 25.34 -26 25 C-26.33 24.01 -26.66 23.02 -27 22 C-28.65 22.33 -30.3 22.66 -32 23 C-31.34 21.35 -30.68 19.7 -30 18 C-30.99 18 -31.98 18 -33 18 C-33 20.31 -33 22.62 -33 25 C-33.99 25 -34.98 25 -36 25 C-36 22.69 -36 20.38 -36 18 C-36.66 17.67 -37.32 17.34 -38 17 C-37.34 16.34 -36.68 15.68 -36 15 C-37.32 14.67 -38.64 14.34 -40 14 C-40 13.34 -40 12.68 -40 12 C-36.94736336 11.01879536 -35.05263664 11.01879536 -32 12 C-32 11.34 -32 10.68 -32 10 C-34.475 9.01 -34.475 9.01 -37 8 C-37 6.68 -37 5.36 -37 4 C-36.28714844 4.01160156 -35.57429688 4.02320313 -34.83984375 4.03515625 C-29.45740358 4.08586565 -24.27770876 4.12291676 -19 3 C-18.34 2.34 -17.68 1.68 -17 1 C-14.35546875 0.5859375 -14.35546875 0.5859375 -11.1875 0.375 C-10.14980469 0.30023438 -9.11210938 0.22546875 -8.04296875 0.1484375 C-5.35487798 0.01731112 -2.69052793 -0.0298395 0 0 Z " fill="#201CF5" transform="translate(81,9)"/>
<path d="M0 0 C-2.625 4.875 -2.625 4.875 -6 6 C-6 5.34 -6 4.68 -6 4 C-7.98 4.33 -9.96 4.66 -12 5 C-12.66 7.64 -13.32 10.28 -14 13 C-13.01 13 -12.02 13 -11 13 C-11 12.34 -11 11.68 -11 11 C-10.34 10.67 -9.68 10.34 -9 10 C-9 9.01 -9 8.02 -9 7 C-6 10.625 -6 10.625 -6 14 C-4.02 14 -2.04 14 0 14 C-0.66 15.65 -1.32 17.3 -2 19 C-2.66 19 -3.32 19 -4 19 C-4.3403125 20.1446875 -4.3403125 20.1446875 -4.6875 21.3125 C-6.26731682 24.54736301 -7.83282717 25.41641358 -11 27 C-10.34 27.99 -9.68 28.98 -9 30 C-10.19625 29.835 -11.3925 29.67 -12.625 29.5 C-16.10548715 29.06029433 -19.48771488 28.91219287 -23 29 C-23 28.01 -23 27.02 -23 26 C-23.99 25.67 -24.98 25.34 -26 25 C-26.33 24.01 -26.66 23.02 -27 22 C-28.65 22.33 -30.3 22.66 -32 23 C-31.34 21.35 -30.68 19.7 -30 18 C-30.99 18 -31.98 18 -33 18 C-33 20.31 -33 22.62 -33 25 C-33.99 25 -34.98 25 -36 25 C-36 22.69 -36 20.38 -36 18 C-36.66 17.67 -37.32 17.34 -38 17 C-37.34 16.34 -36.68 15.68 -36 15 C-37.32 14.67 -38.64 14.34 -40 14 C-40 13.34 -40 12.68 -40 12 C-36.94736336 11.01879536 -35.05263664 11.01879536 -32 12 C-32 11.34 -32 10.68 -32 10 C-34.475 9.01 -34.475 9.01 -37 8 C-37 6.68 -37 5.36 -37 4 C-36.28714844 4.01160156 -35.57429688 4.02320313 -34.83984375 4.03515625 C-29.45740358 4.08586565 -24.27770876 4.12291676 -19 3 C-18.34 2.34 -17.68 1.68 -17 1 C-14.35546875 0.5859375 -14.35546875 0.5859375 -11.1875 0.375 C-10.14980469 0.30023438 -9.11210938 0.22546875 -8.04296875 0.1484375 C-5.35487798 0.01731112 -2.69052793 -0.0298395 0 0 Z " fill="#0C06F3" transform="translate(81,9)"/>
<path d="M0 0 C0.33 0.99 0.66 1.98 1 3 C3.01508358 3.73323796 3.01508358 3.73323796 5 4 C4.67 4.99 4.34 5.98 4 7 C4.33 7.66 4.66 8.32 5 9 C5.51093875 13.05831354 5.91678528 17.19576657 4.0234375 20.921875 C1.2075892 24.41145388 -1.72098642 26.56189018 -6.11328125 27.40625 C-10.66566732 27.60031264 -13.36598124 27.20883144 -16.9375 24.25 C-20.3525597 21.05292284 -21.85628504 18.29343463 -22.375 13.625 C-21.80416632 8.10694111 -19.44044663 5.3684243 -15.5 1.625 C-10.37850249 -0.75283813 -5.55638275 -0.32367278 0 0 Z " fill="#1D2E4B" transform="translate(31,6)"/>
<path d="M0 0 C0.33 0 0.66 0 1 0 C1 2.31 1 4.62 1 7 C3.64 7 6.28 7 9 7 C9 6.34 9 5.68 9 5 C7.35 5 5.7 5 4 5 C4.66 4.34 5.32 3.68 6 3 C5.34 2.67 4.68 2.34 4 2 C4 1.34 4 0.68 4 0 C6.31 0 8.62 0 11 0 C11 2.64 11 5.28 11 8 C11.99 8 12.98 8 14 8 C14 5.36 14 2.72 14 0 C15.32 0.33 16.64 0.66 18 1 C17.67 1.99 17.34 2.98 17 4 C16.34 4 15.68 4 15 4 C15.33 4.66 15.66 5.32 16 6 C18.35599235 6.46751788 18.35599235 6.46751788 21.0625 6.625 C21.98160156 6.69976563 22.90070313 6.77453125 23.84765625 6.8515625 C24.55792969 6.90054687 25.26820313 6.94953125 26 7 C26 7.99 26 8.98 26 10 C29.63 10 33.26 10 37 10 C35 14 35 14 32 16 C33.32 16.33 34.64 16.66 36 17 C36 17.66 36 18.32 36 19 C33.03 19 30.06 19 27 19 C29 15 29 15 31 13 C28.03 13 25.06 13 22 13 C21.67 15.64 21.34 18.28 21 21 C17.24329669 21.96600942 14.75750219 21.77076968 11 21 C9.65737935 21.29369827 8.32303717 21.6278958 7 22 C5.33376361 22.03786901 3.66602403 22.04627845 2 22 C1.67 21.34 1.34 20.68 1 20 C-1.02463255 19.34786708 -1.02463255 19.34786708 -3 19 C-3 18.34 -3 17.68 -3 17 C-1.02 17 0.96 17 3 17 C3 15.68 3 14.36 3 13 C2.01 12.34 1.02 11.68 0 11 C1.65 10.34 3.3 9.68 5 9 C2.69 9 0.38 9 -2 9 C-2 9.66 -2 10.32 -2 11 C-2.66 11 -3.32 11 -4 11 C-4 10.01 -4 9.02 -4 8 C-5.32 7.67 -6.64 7.34 -8 7 C-7.01 6.67 -6.02 6.34 -5 6 C-5 5.34 -5 4.68 -5 4 C-3.35 3.34 -1.7 2.68 0 2 C0 1.34 0 0.68 0 0 Z " fill="#1512F4" transform="translate(119,15)"/>
<path d="M0 0 C0.66 0.33 1.32 0.66 2 1 C0.68 3.31 -0.64 5.62 -2 8 C0.31 8 2.62 8 5 8 C5.33 8.66 5.66 9.32 6 10 C3.09399739 11.25664978 1.20395416 12 -2 12 C-1.67 12.66 -1.34 13.32 -1 14 C2.91211733 12.84414715 5.8745041 11.64465038 9 9 C9.66 9.33 10.32 9.66 11 10 C10.360625 11.0725 9.72125 12.145 9.0625 13.25 C7.59398727 15.80822182 6.47145458 18.05340886 6 21 C6.66 21 7.32 21 8 21 C8.12375 20.05125 8.2475 19.1025 8.375 18.125 C9 15 9 15 11 13 C13.1519437 16.22791555 13.20086443 17.28400809 13 21 C18.20571226 18.01366187 18.20571226 18.01366187 21 13 C21.21753695 9.51940883 21.22096141 6.29659579 20 3 C19.34 2.67 18.68 2.34 18 2 C18.33 1.34 18.66 0.68 19 0 C20.32 0 21.64 0 23 0 C22.67 0.99 22.34 1.98 22 3 C22.33 3.66 22.66 4.32 23 5 C23.51093875 9.05831354 23.91678528 13.19576657 22.0234375 16.921875 C19.2075892 20.41145388 16.27901358 22.56189018 11.88671875 23.40625 C7.33433268 23.60031264 4.63401876 23.20883144 1.0625 20.25 C-2.3525597 17.05292284 -3.85628504 14.29343463 -4.375 9.625 C-3.93716093 5.39255567 -2.58860406 3.31664895 0 0 Z " fill="#29354E" transform="translate(13,10)"/>
<path d="M0 0 C0.33 0.66 0.66 1.32 1 2 C1.66 2 2.32 2 3 2 C3.33 1.34 3.66 0.68 4 0 C4.7425 0.185625 5.485 0.37125 6.25 0.5625 C8.94990963 0.99203108 10.44631077 0.85122974 13 0 C13.33 0.66 13.66 1.32 14 2 C14.66 2 15.32 2 16 2 C16.33 1.34 16.66 0.68 17 0 C17.99 0.33 18.98 0.66 20 1 C19.34 1.66 18.68 2.32 18 3 C17.32707499 4.96690374 17.32707499 4.96690374 16.875 7.125 C16.58625 8.40375 16.2975 9.6825 16 11 C12.24329669 11.96600942 9.75750219 11.77076968 6 11 C4.65737935 11.29369827 3.32303717 11.6278958 2 12 C0.33376361 12.03786901 -1.33397597 12.04627845 -3 12 C-3.33 11.34 -3.66 10.68 -4 10 C-6.02463255 9.34786708 -6.02463255 9.34786708 -8 9 C-8 8.34 -8 7.68 -8 7 C-6.02 7 -4.04 7 -2 7 C-2 5.68 -2 4.36 -2 3 C-2.99 2.34 -3.98 1.68 -5 1 C-3 0 -3 0 0 0 Z " fill="#110CF4" transform="translate(124,25)"/>
<path d="M0 0 C9.57 0 19.14 0 29 0 C30.125 5.625 30.125 5.625 29 9 C26.525 8.505 26.525 8.505 24 8 C24 7.34 24 6.68 24 6 C24.66 5.67 25.32 5.34 26 5 C26 4.34 26 3.68 26 3 C25.01 2.67 24.02 2.34 23 2 C23 4.64 23 7.28 23 10 C22.01 10 21.02 10 20 10 C20 7.36 20 4.72 20 2 C17.69 2 15.38 2 13 2 C13 2.66 13 3.32 13 4 C13.99 4.33 14.98 4.66 16 5 C15.67 5.33 15.34 5.66 15 6 C15.99 6.33 16.98 6.66 18 7 C18 7.66 18 8.32 18 9 C15.36 9 12.72 9 10 9 C9.67 7.35 9.34 5.7 9 4 C7.35 4.66 5.7 5.32 4 6 C4 6.66 4 7.32 4 8 C5.65 8 7.3 8 9 8 C9 8.33 9 8.66 9 9 C6.36 9 3.72 9 1 9 C1.3125 7.125 1.3125 7.125 2 5 C2.99 4.34 3.98 3.68 5 3 C2.03 2.505 2.03 2.505 -1 2 C-0.67 1.34 -0.34 0.68 0 0 Z " fill="#AFADFB" transform="translate(110,13)"/>
<path d="M0 0 C-0.0625 2.25 -0.0625 2.25 -1 5 C-6.51864681 9.34446663 -11.1406744 9.49685256 -18 9 C-17 6 -16 3 -15 0 C-10.56670214 -1.95065106 -4.43031277 -1.47677092 0 0 Z " fill="#091F56" transform="translate(29,9)"/>
<path d="M0 0 C0.83265381 0.00523682 1.66530762 0.01047363 2.52319336 0.01586914 C3.42231445 0.0190918 4.32143555 0.02231445 5.24780273 0.02563477 C6.66609375 0.03820312 6.66609375 0.03820312 8.11303711 0.05102539 C9.06243164 0.05553711 10.01182617 0.06004883 10.98999023 0.06469727 C13.34356776 0.07652429 15.69702188 0.09300514 18.05053711 0.11352539 C18.6478653 2.87616828 19.05053711 5.27385308 19.05053711 8.11352539 C17.73053711 8.44352539 16.41053711 8.77352539 15.05053711 9.11352539 C15.05053711 5.11352539 15.05053711 5.11352539 16.05053711 2.11352539 C14.73053711 2.11352539 13.41053711 2.11352539 12.05053711 2.11352539 C12.05053711 4.42352539 12.05053711 6.73352539 12.05053711 9.11352539 C11.06053711 9.11352539 10.07053711 9.11352539 9.05053711 9.11352539 C8.72053711 8.12352539 8.39053711 7.13352539 8.05053711 6.11352539 C6.40053711 6.44352539 4.75053711 6.77352539 3.05053711 7.11352539 C3.71053711 5.46352539 4.37053711 3.81352539 5.05053711 2.11352539 C4.06053711 2.11352539 3.07053711 2.11352539 2.05053711 2.11352539 C2.05053711 4.42352539 2.05053711 6.73352539 2.05053711 9.11352539 C1.06053711 9.11352539 0.07053711 9.11352539 -0.94946289 9.11352539 C-0.94946289 6.80352539 -0.94946289 4.49352539 -0.94946289 2.11352539 C-1.60946289 1.78352539 -2.26946289 1.45352539 -2.94946289 1.11352539 C-1.94946289 0.11352539 -1.94946289 0.11352539 0 0 Z " fill="#B7B5FC" transform="translate(45.949462890625,24.886474609375)"/>
<path d="M0 0 C2.10900443 3.42713219 2.47895471 6.00871074 2 10 C0.12711824 13.60703153 -1.0898912 15.5449456 -4.75 17.375 C-5.4925 17.58125 -6.235 17.7875 -7 18 C-8.75975135 8.49351715 -8.75975135 8.49351715 -6.1875 3.9375 C-3.25531915 0 -3.25531915 0 0 0 Z " fill="#0A2056" transform="translate(33,13)"/>
<path d="M0 0 C6.93 0 13.86 0 21 0 C21 0.66 21 1.32 21 2 C19.68 2 18.36 2 17 2 C17 4.31 17 6.62 17 9 C16.01 9.33 15.02 9.66 14 10 C14 7.36 14 4.72 14 2 C12.3603125 2.2475 12.3603125 2.2475 10.6875 2.5 C7 3 7 3 4 3 C4.66 3.433125 5.32 3.86625 6 4.3125 C6.66 4.869375 7.32 5.42625 8 6 C8 6.99 8 7.98 8 9 C4.7 9 1.4 9 -2 9 C-1.67 8.34 -1.34 7.68 -1 7 C1.97 7.495 1.97 7.495 5 8 C5 7.34 5 6.68 5 6 C2.525 5.01 2.525 5.01 0 4 C0 2.68 0 1.36 0 0 Z " fill="#B8B6FC" transform="translate(44,13)"/>
<path d="M0 0 C3.96 0 7.92 0 12 0 C12 2.64 12 5.28 12 8 C12.66 8.33 13.32 8.66 14 9 C8.79463958 11.26900326 4.44477055 11.22754827 -1 10 C-2.35405017 9.37648549 -3.69493815 8.72044138 -5 8 C-4.67 7.34 -4.34 6.68 -4 6 C-0.7 6.33 2.6 6.66 6 7 C6 6.01 6 5.02 6 4 C5.38125 3.71125 4.7625 3.4225 4.125 3.125 C2 2 2 2 0 0 Z " fill="#1B17F4" transform="translate(46,15)"/>
<path d="M0 0 C1.18613892 0.00785522 1.18613892 0.00785522 2.39624023 0.01586914 C3.67724609 0.02070313 3.67724609 0.02070313 4.98413086 0.02563477 C5.88196289 0.03401367 6.77979492 0.04239258 7.70483398 0.05102539 C8.6065332 0.05553711 9.50823242 0.06004883 10.43725586 0.06469727 C12.67234712 0.07652315 14.90730835 0.09300319 17.14233398 0.11352539 C17.14233398 0.77352539 17.14233398 1.43352539 17.14233398 2.11352539 C16.15233398 2.11352539 15.16233398 2.11352539 14.14233398 2.11352539 C14.14233398 4.09352539 14.14233398 6.07352539 14.14233398 8.11352539 C12.16233398 9.10352539 12.16233398 9.10352539 10.14233398 10.11352539 C10.14233398 7.47352539 10.14233398 4.83352539 10.14233398 2.11352539 C9.60608398 2.29915039 9.06983398 2.48477539 8.51733398 2.67602539 C5.52242784 3.22771863 3.1048757 2.71949983 0.14233398 2.11352539 C0.71686145 6.04428183 0.71686145 6.04428183 3.14233398 9.11352539 C-1.73266602 8.23852539 -1.73266602 8.23852539 -2.85766602 7.11352539 C-2.98266602 4.11352539 -2.98266602 4.11352539 -2.85766602 1.11352539 C-1.85766602 0.11352539 -1.85766602 0.11352539 0 0 Z " fill="#B7B4FC" transform="translate(96.857666015625,24.886474609375)"/>
<path d="M0 0 C1.8871875 0.0309375 1.8871875 0.0309375 3.8125 0.0625 C1.8325 2.3725 -0.1475 4.6825 -2.1875 7.0625 C0.7825 7.0625 3.7525 7.0625 6.8125 7.0625 C6.4825 8.0525 6.1525 9.0425 5.8125 10.0625 C1.18328475 11.0786692 -2.53212607 10.90046731 -7.1875 10.0625 C-7.1875 9.4025 -7.1875 8.7425 -7.1875 8.0625 C-7.5175 7.4025 -7.8475 6.7425 -8.1875 6.0625 C-7.90807545 4.38595271 -7.57921753 2.71641846 -7.1875 1.0625 C-4.43671116 0.14557039 -2.82801087 -0.04636083 0 0 Z " fill="#1009F3" transform="translate(148.1875,26.9375)"/>
<path d="M0 0 C4.62 0 9.24 0 14 0 C12 2 12 2 9.375 2.125 C8.59125 2.08375 7.8075 2.0425 7 2 C7 2.66 7 3.32 7 4 C7.99 4.33 8.98 4.66 10 5 C9.67 5.33 9.34 5.66 9 6 C10.32 6.66 11.64 7.32 13 8 C12 9 12 9 8.4375 9.0625 C7.303125 9.041875 6.16875 9.02125 5 9 C4.67 7.68 4.34 6.36 4 5 C3.01 6.32 2.02 7.64 1 9 C0.01 8.67 -0.98 8.34 -2 8 C-1.67 7.67 -1.34 7.34 -1 7 C-0.63239269 4.67182036 -0.29758419 2.3381615 0 0 Z " fill="#AFACFB" transform="translate(79,25)"/>
<path d="M0 0 C0.99 0.495 0.99 0.495 2 1 C2.99 0.67 3.98 0.34 5 0 C7.1415979 -0.17032265 9.28963927 -0.26617837 11.4375 -0.3125 C12.57058594 -0.34988281 13.70367187 -0.38726562 14.87109375 -0.42578125 C18.58871413 0.08011216 19.69313903 1.12634273 22 4 C14.78194245 4.7938642 8.19172157 5.07875823 1 4 C0.67 5.32 0.34 6.64 0 8 C0 5.36 0 2.72 0 0 Z " fill="#0901F4" transform="translate(43,9)"/>
<path d="M0 0 C2.9375 0.1875 2.9375 0.1875 3.9375 1.1875 C4.0625 4.6875 4.0625 4.6875 3.9375 8.1875 C2.9375 9.1875 2.9375 9.1875 0 9.375 C-3.0625 9.1875 -3.0625 9.1875 -5.0625 7.1875 C-5.3125 4.6875 -5.3125 4.6875 -5.0625 2.1875 C-3.0625 0.1875 -3.0625 0.1875 0 0 Z " fill="#C6C4FD" transform="translate(71.0625,24.8125)"/>
<path d="M0 0 C2 1.8125 2 1.8125 4 4 C4 4.99 4 5.98 4 7 C5.98 7 7.96 7 10 7 C9.34 8.65 8.68 10.3 8 12 C7.34 12 6.68 12 6 12 C5.34 13.32 4.68 14.64 4 16 C3.67 14.02 3.34 12.04 3 10 C0.69 10 -1.62 10 -4 10 C-4 9.01 -4 8.02 -4 7 C-1.5 4.8125 -1.5 4.8125 1 3 C0.67 2.01 0.34 1.02 0 0 Z " fill="#1411F4" transform="translate(71,16)"/>
<path d="M0 0 C3.3 0 6.6 0 10 0 C9.67 1.65 9.34 3.3 9 5 C8.34 5 7.68 5 7 5 C8.10529715 9.50621146 8.65094547 11.65094547 12 15 C9.03 15 6.06 15 3 15 C3.99 14.67 4.98 14.34 6 14 C6 13.34 6 12.68 6 12 C5.34 12 4.68 12 4 12 C4.33 9.69 4.66 7.38 5 5 C4.01 4.67 3.02 4.34 2 4 C2 3.01 2 2.02 2 1 C1.34 0.67 0.68 0.34 0 0 Z " fill="#0D07F4" transform="translate(82,9)"/>
<path d="M0 0 C1.23556641 0.01740234 1.23556641 0.01740234 2.49609375 0.03515625 C3.32238281 0.04417969 4.14867188 0.05320312 5 0.0625 C5.63808594 0.07410156 6.27617188 0.08570313 6.93359375 0.09765625 C7.77813731 3.4758305 8.04204294 5.77230868 6.93359375 9.09765625 C5.61359375 8.76765625 4.29359375 8.43765625 2.93359375 8.09765625 C3.26359375 6.44765625 3.59359375 4.79765625 3.93359375 3.09765625 C2.94359375 2.76765625 1.95359375 2.43765625 0.93359375 2.09765625 C0.93359375 4.40765625 0.93359375 6.71765625 0.93359375 9.09765625 C-0.05640625 9.09765625 -1.04640625 9.09765625 -2.06640625 9.09765625 C-2.9453125 2.9453125 -2.9453125 2.9453125 -3.06640625 1.09765625 C-2.06640625 0.09765625 -2.06640625 0.09765625 0 0 Z " fill="#C0BEFC" transform="translate(80.06640625,12.90234375)"/>
<path d="M0 0 C3.63 0 7.26 0 11 0 C9 4 9 4 6 6 C7.32 6.33 8.64 6.66 10 7 C10 7.66 10 8.32 10 9 C7.03 9 4.06 9 1 9 C3 5 3 5 5 3 C3.35 2.67 1.7 2.34 0 2 C0 1.34 0 0.68 0 0 Z " fill="#ADAAFB" transform="translate(145,25)"/>
<path d="M0 0 C1.33333333 2 2.66666667 4 4 6 C4.99 6.66 5.98 7.32 7 8 C6.34 8 5.68 8 5 8 C5 8.66 5 9.32 5 10 C2.36 10 -0.28 10 -3 10 C-3 9.67 -3 9.34 -3 9 C-4.65 8.67 -6.3 8.34 -8 8 C-8 7.67 -8 7.34 -8 7 C-4.535 6.505 -4.535 6.505 -1 6 C-2.32 5.34 -3.64 4.68 -5 4 C-4.360625 3.71125 -3.72125 3.4225 -3.0625 3.125 C-0.84793921 2.17176549 -0.84793921 2.17176549 0 0 Z " fill="#120BF5" transform="translate(92,27)"/>
<path d="M0 0 C0.66 2.97 1.32 5.94 2 9 C1.34 9 0.68 9 0 9 C-0.66 8.01 -1.32 7.02 -2 6 C-2.99 6.33 -3.98 6.66 -5 7 C-5 7.66 -5 8.32 -5 9 C-5.99 9 -6.98 9 -8 9 C-7.39622642 3.56603774 -7.39622642 3.56603774 -5.6875 1.125 C-4 0 -4 0 0 0 Z " fill="#BDBBFC" transform="translate(75,13)"/>
<path d="M0 0 C0.66 2.97 1.32 5.94 2 9 C-1 8 -1 8 -2 7 C-3.32 7 -4.64 7 -6 7 C-6 7.66 -6 8.32 -6 9 C-6.66 9 -7.32 9 -8 9 C-7.39622642 3.56603774 -7.39622642 3.56603774 -5.6875 1.125 C-4 0 -4 0 0 0 Z " fill="#C0BEFC" transform="translate(107,13)"/>
<path d="M0 0 C-0.33 0.99 -0.66 1.98 -1 3 C-2.65 2.67 -4.3 2.34 -6 2 C-6 3.65 -6 5.3 -6 7 C-5.01 7 -4.02 7 -3 7 C-3 6.34 -3 5.68 -3 5 C-2.34 5 -1.68 5 -1 5 C-1.33 6.32 -1.66 7.64 -2 9 C-4.375 9.125 -4.375 9.125 -7 9 C-9 7 -9 7 -9.125 3.875 C-9.08375 2.92625 -9.0425 1.9775 -9 1 C-6.04335481 -0.4783226 -3.25770263 -0.06032783 0 0 Z " fill="#B7B4FC" transform="translate(98,13)"/>
<path d="M0 0 C0.33 0.66 0.66 1.32 1 2 C1.66 2 2.32 2 3 2 C3.33 1.34 3.66 0.68 4 0 C4.99 0.33 5.98 0.66 7 1 C6.01 2.32 5.02 3.64 4 5 C5.32 5.99 6.64 6.98 8 8 C6.68 8.33 5.36 8.66 4 9 C3.67 8.01 3.34 7.02 3 6 C2.01 6.99 1.02 7.98 0 9 C-0.99 8.67 -1.98 8.34 -3 8 C-2.34 6.68 -1.68 5.36 -1 4 C-2.32 3.01 -3.64 2.02 -5 1 C-3 0 -3 0 0 0 Z " fill="#C2C0FC" transform="translate(124,25)"/>
<path d="M0 0 C1.32 0 2.64 0 4 0 C3.67 0.99 3.34 1.98 3 3 C3.33 3.66 3.66 4.32 4 5 C4.51037087 9.05380289 4.89274541 13.1774658 3.05859375 16.921875 C0.52426114 20.1315 -2.09754899 21.885014 -6 23 C-6 22.34 -6 21.68 -6 21 C-5.05125 20.38125 -4.1025 19.7625 -3.125 19.125 C0.44499048 16.73465698 0.44499048 16.73465698 2 13 C2.21753695 9.51940883 2.22096141 6.29659579 1 3 C0.34 2.67 -0.32 2.34 -1 2 C-0.67 1.34 -0.34 0.68 0 0 Z " fill="#354147" transform="translate(32,10)"/>
<path d="M0 0 C0.99 0 1.98 0 3 0 C3.33 0.66 3.66 1.32 4 2 C4.66 2 5.32 2 6 2 C6.33 1.34 6.66 0.68 7 0 C7.99 0.33 8.98 0.66 10 1 C9.34 1.66 8.68 2.32 8 3 C7.28072705 5.31765729 6.6090107 7.65095874 6 10 C5.01 10 4.02 10 3 10 C2.71125 8.88625 2.4225 7.7725 2.125 6.625 C1.30758671 2.99708908 1.30758671 2.99708908 -1 1 C-0.67 0.67 -0.34 0.34 0 0 Z " fill="#C1BFFC" transform="translate(134,25)"/>
<path d="M0 0 C0.66 0 1.32 0 2 0 C2.33 0.66 2.66 1.32 3 2 C5.52733235 2.65555119 5.52733235 2.65555119 8 3 C6.09598862 4.90401138 4.66574314 5.93520439 1.953125 6.19921875 C-0.03233273 6.1886578 -2.0169914 6.09915043 -4 6 C-4.33 5.34 -4.66 4.68 -5 4 C-7.02463255 3.34786708 -7.02463255 3.34786708 -9 3 C-9 2.34 -9 1.68 -9 1 C-6.23723823 1.52268466 -3.6739124 2.10869587 -1 3 C-0.67 2.01 -0.34 1.02 0 0 Z " fill="#2A24F5" transform="translate(125,31)"/>
<path d="M0 0 C0.99 0.33 1.98 0.66 3 1 C3 1.99 3 2.98 3 4 C5.31 4.33 7.62 4.66 10 5 C7.38485683 7.12038635 4.80362384 9.13091744 2 11 C-0.32590854 7.36576791 -0.16265833 4.22911669 0 0 Z " fill="#100BF4" transform="translate(107,10)"/>
<path d="M0 0 C0.66 0.33 1.32 0.66 2 1 C0.68 3.31 -0.64 5.62 -2 8 C0.31 8 2.62 8 5 8 C5.33 8.66 5.66 9.32 6 10 C1.56923077 12.09230769 1.56923077 12.09230769 -1.3125 11.625 C-1.869375 11.41875 -2.42625 11.2125 -3 11 C-3.36923077 4.6 -3.36923077 4.6 -1.5 1.5625 C-1.005 1.046875 -0.51 0.53125 0 0 Z " fill="#323E3F" transform="translate(13,10)"/>
<path d="M0 0 C0 1.65 0 3.3 0 5 C-0.99 5 -1.98 5 -3 5 C-2.67 4.67 -2.34 4.34 -2 4 C-2.66 3.67 -3.32 3.34 -4 3 C-4.33 3.99 -4.66 4.98 -5 6 C-5.99 5.67 -6.98 5.34 -8 5 C-8.33 3.35 -8.66 1.7 -9 0 C-5.52176885 -1.15941038 -3.54104422 -0.70820884 0 0 Z " fill="#201BF4" transform="translate(145,22)"/>
<path d="M0 0 C0.33 0 0.66 0 1 0 C1 2.64 1 5.28 1 8 C0.01 8.33 -0.98 8.66 -2 9 C-2 9.66 -2 10.32 -2 11 C-2.66 11 -3.32 11 -4 11 C-4 10.01 -4 9.02 -4 8 C-5.32 7.67 -6.64 7.34 -8 7 C-7.01 6.67 -6.02 6.34 -5 6 C-5 5.34 -5 4.68 -5 4 C-3.35 3.34 -1.7 2.68 0 2 C0 1.34 0 0.68 0 0 Z " fill="#2220F5" transform="translate(119,15)"/>
<path d="M0 0 C0.66 0.33 1.32 0.66 2 1 C1.67 3.31 1.34 5.62 1 8 C0.34 8 -0.32 8 -1 8 C-1 7.01 -1 6.02 -1 5 C-1.66 5 -2.32 5 -3 5 C-3 5.66 -3 6.32 -3 7 C-3.99 7 -4.98 7 -6 7 C-6 5.35 -6 3.7 -6 2 C-4.35 2 -2.7 2 -1 2 C-0.67 1.34 -0.34 0.68 0 0 Z " fill="#231FF4" transform="translate(98,13)"/>
<path d="M0 0 C0.99 0 1.98 0 3 0 C3 0.66 3 1.32 3 2 C3.99 2.33 4.98 2.66 6 3 C5.67 3.33 5.34 3.66 5 4 C5.99 4.33 6.98 4.66 8 5 C8 5.66 8 6.32 8 7 C5.36 7 2.72 7 0 7 C0 4.69 0 2.38 0 0 Z " fill="#ADABFB" transform="translate(120,15)"/>
<path d="M0 0 C1.61648437 0.04060547 1.61648437 0.04060547 3.265625 0.08203125 C4.08546875 0.11683594 4.9053125 0.15164062 5.75 0.1875 C5.42 1.8375 5.09 3.4875 4.75 5.1875 C4.42 4.5275 4.09 3.8675 3.75 3.1875 C-0.87 3.1875 -5.49 3.1875 -10.25 3.1875 C-5.93072606 -0.05195545 -5.09798489 -0.16623864 0 0 Z " fill="#283648" transform="translate(25.25,5.8125)"/>
<path d="M0 0 C2.64 0 5.28 0 8 0 C7.67 2.64 7.34 5.28 7 8 C5.35 7.67 3.7 7.34 2 7 C2 6.34 2 5.68 2 5 C2.66 4.67 3.32 4.34 4 4 C4 3.34 4 2.68 4 2 C2.68 1.34 1.36 0.68 0 0 Z " fill="#C6C5FD" transform="translate(132,14)"/>
<path d="M0 0 C2.31 0 4.62 0 7 0 C7 1.98 7 3.96 7 6 C4.69 5.67 2.38 5.34 0 5 C0.66 4.34 1.32 3.68 2 3 C1.34 2.67 0.68 2.34 0 2 C0 1.34 0 0.68 0 0 Z " fill="#0805F3" transform="translate(123,15)"/>
<path d="M0 0 C1.32 0 2.64 0 4 0 C3.71758359 1.46015291 3.42373386 2.91809793 3.125 4.375 C2.96257813 5.18710937 2.80015625 5.99921875 2.6328125 6.8359375 C2 9 2 9 0 11 C0 10.01 0 9.02 0 8 C-0.66 7.67 -1.32 7.34 -2 7 C-1.34 7 -0.68 7 0 7 C0 4.69 0 2.38 0 0 Z " fill="#1711F4" transform="translate(58,27)"/>
<path d="M0 0 C2.475 0.495 2.475 0.495 5 1 C4.67 1.66 4.34 2.32 4 3 C5.32 3.66 6.64 4.32 8 5 C7 6 7 6 3.4375 6.0625 C2.303125 6.041875 1.16875 6.02125 0 6 C0 4.02 0 2.04 0 0 Z " fill="#C0BEFC" transform="translate(84,28)"/>
<path d="M0 0 C0.99 0.33 1.98 0.66 3 1 C2.67 1.33 2.34 1.66 2 2 C3.32 2.33 4.64 2.66 6 3 C6 3.66 6 4.32 6 5 C3.03 5 0.06 5 -3 5 C-1 1 -1 1 0 0 Z " fill="#C4C2FD" transform="translate(149,29)"/>
<path d="M0 0 C1.32 0 2.64 0 4 0 C3.814375 0.94875 3.62875 1.8975 3.4375 2.875 C2.71313368 5.89868793 2.71313368 5.89868793 4 8 C2.35 7.67 0.7 7.34 -1 7 C-0.67 4.69 -0.34 2.38 0 0 Z " fill="#D2D1FD" transform="translate(61,26)"/>
<path d="M0 0 C-1.26239712 0.86658615 -2.53527501 1.71792059 -3.8125 2.5625 C-4.87404297 3.27599609 -4.87404297 3.27599609 -5.95703125 4.00390625 C-8 5 -8 5 -11 4 C-11 3.34 -11 2.68 -11 2 C-9.54494642 1.47007308 -8.08581873 0.9513211 -6.625 0.4375 C-5.81289063 0.14746094 -5.00078125 -0.14257812 -4.1640625 -0.44140625 C-2 -1 -2 -1 0 0 Z " fill="#0F2353" transform="translate(22,20)"/>
<path d="M0 0 C0.66 0.66 1.32 1.32 2 2 C0.35 3.65 -1.3 5.3 -3 7 C-3.33 5.35 -3.66 3.7 -4 2 C-2.68 1.34 -1.36 0.68 0 0 Z " fill="#242F43" transform="translate(18,22)"/>
<path d="M0 0 C0.66 0.33 1.32 0.66 2 1 C2 3.31 2 5.62 2 8 C1.01 8 0.02 8 -1 8 C-1.125 2.25 -1.125 2.25 0 0 Z " fill="#363F3C" transform="translate(23,23)"/>
<path d="M0 0 C1 2 1 2 0.44140625 4.1640625 C0.15136719 4.97617187 -0.13867188 5.78828125 -0.4375 6.625 C-0.72496094 7.44226563 -1.01242188 8.25953125 -1.30859375 9.1015625 C-1.53675781 9.72804688 -1.76492187 10.35453125 -2 11 C-2.66 11 -3.32 11 -4 11 C-3.48964169 6.6109185 -2.47785723 3.66291938 0 0 Z " fill="#0B2055" transform="translate(23,20)"/>
<path d="M0 0 C0.99 0.495 0.99 0.495 2 1 C4.09821215 0.60061233 4.09821215 0.60061233 6 0 C6.33 0.66 6.66 1.32 7 2 C6.34 2.66 5.68 3.32 5 4 C3.68 4 2.36 4 1 4 C0.67 5.32 0.34 6.64 0 8 C0 5.36 0 2.72 0 0 Z " fill="#140EF4" transform="translate(43,9)"/>
<path d="M0 0 C1.32 0 2.64 0 4 0 C4 1.65 4 3.3 4 5 C2.68 5 1.36 5 0 5 C0 3.35 0 1.7 0 0 Z " fill="#1410F4" transform="translate(69,27)"/>
<path d="M0 0 C1.32 0.33 2.64 0.66 4 1 C4 1.99 4 2.98 4 4 C0.7 4 -2.6 4 -6 4 C-5.67 3.34 -5.34 2.68 -5 2 C-2.03 2.495 -2.03 2.495 1 3 C0.67 2.01 0.34 1.02 0 0 Z " fill="#CDCBFD" transform="translate(48,18)"/>
<path d="M0 0 C2.31 0 4.62 0 7 0 C7.33 0.66 7.66 1.32 8 2 C5.69 2.33 3.38 2.66 1 3 C0.67 2.01 0.34 1.02 0 0 Z " fill="#303734" transform="translate(11,18)"/>
<path d="M0 0 C0.66 0.33 1.32 0.66 2 1 C2 3.31 2 5.62 2 8 C2.99 8.33 3.98 8.66 5 9 C3.02 9 1.04 9 -1 9 C-0.34 8.67 0.32 8.34 1 8 C0.34 5.69 -0.32 3.38 -1 1 C-0.67 0.67 -0.34 0.34 0 0 Z " fill="#2522F5" transform="translate(76,14)"/>
<path d="M0 0 C2.97 0.495 2.97 0.495 6 1 C5.01 1.33 4.02 1.66 3 2 C3 2.99 3 3.98 3 5 C2.01 5 1.02 5 0 5 C0 3.35 0 1.7 0 0 Z " fill="#0502F3" transform="translate(92,15)"/>
<path d="M0 0 C1.65 0 3.3 0 5 0 C5 0.66 5 1.32 5 2 C5.66 2 6.32 2 7 2 C6.67 2.66 6.34 3.32 6 4 C3.03 3.505 3.03 3.505 0 3 C0 2.01 0 1.02 0 0 Z " fill="#0000DE" transform="translate(121,37)"/>
<path d="M0 0 C1.32 0.33 2.64 0.66 4 1 C3.67 1.99 3.34 2.98 3 4 C2.34 4 1.68 4 1 4 C0.67 5.32 0.34 6.64 0 8 C0 5.36 0 2.72 0 0 Z " fill="#0A05F4" transform="translate(81,15)"/>
<path d="M0 0 C0.66 0.33 1.32 0.66 2 1 C0.35 3.64 -1.3 6.28 -3 9 C-3.33 8.01 -3.66 7.02 -4 6 C-2.84338843 3.79192337 -1.77322566 1.77322566 0 0 Z " fill="#363F3E" transform="translate(22,19)"/>
<path d="M0 0 C0.99 0.33 1.98 0.66 3 1 C2.67 1.66 2.34 2.32 2 3 C3.65 3 5.3 3 7 3 C7 3.33 7 3.66 7 4 C4.36 4 1.72 4 -1 4 C-0.67 2.68 -0.34 1.36 0 0 Z " fill="#D4D3FE" transform="translate(112,18)"/>
<path d="" fill="#000000" transform="translate(0,0)"/>
</svg>
