<?xml version="1.0" encoding="UTF-8"?>
<svg version="1.1" xmlns="http://www.w3.org/2000/svg" width="175" height="72">
<path d="M0 0 C0.80244141 0.00515625 1.60488281 0.0103125 2.43164062 0.015625 C8.34203537 0.09410327 8.34203537 0.09410327 11.13452148 0.82519531 C11.72950439 0.96538086 12.3244873 1.10556641 12.9375 1.25 C13.2675 0.92 13.5975 0.59 13.9375 0.25 C17.03381103 -0.00068786 20.14473686 0.06477492 23.25 0.0625 C24.11818359 0.05025391 24.98636719 0.03800781 25.88085938 0.02539062 C26.72068359 0.02345703 27.56050781 0.02152344 28.42578125 0.01953125 C29.19446533 0.01542236 29.96314941 0.01131348 30.75512695 0.00708008 C33.19126757 0.27824687 34.773478 1.14760643 36.9375 2.25 C37.515 1.96125 38.0925 1.6725 38.6875 1.375 C42.0272645 -0.29488225 45.3099738 -0.22597759 48.9375 0.25 C52.52302881 1.88687185 53.73065055 2.93972583 55.9375 6.25 C56.1328125 8.94921875 56.1328125 8.94921875 56.0625 11.9375 C56.04445313 12.93136719 56.02640625 13.92523438 56.0078125 14.94921875 C55.98460938 15.70847656 55.96140625 16.46773437 55.9375 17.25 C56.9275 16.59 57.9175 15.93 58.9375 15.25 C59.48677962 11.93632691 59.48677962 11.93632691 59.5625 8.1875 C59.85478526 1.33271474 59.85478526 1.33271474 60.9375 0.25 C63.05963184 0.16219937 65.1846667 0.14305148 67.30859375 0.15234375 C69.25282227 0.15717773 69.25282227 0.15717773 71.23632812 0.16210938 C72.6158861 0.17046041 73.99544339 0.1789253 75.375 0.1875 C76.75064945 0.19251412 78.12630063 0.19707718 79.50195312 0.20117188 C82.98050555 0.21326818 86.45898155 0.2307882 89.9375 0.25 C90.5975 0.25 91.2575 0.25 91.9375 0.25 C104.60416667 0.25 117.27083333 0.25 129.9375 0.25 C130.9375 3.25 130.9375 3.25 129.8125 5.9375 C128.884375 7.0821875 128.884375 7.0821875 127.9375 8.25 C125.3203125 8.39453125 125.3203125 8.39453125 122.9375 8.25 C122.97230469 8.97445313 123.00710937 9.69890625 123.04296875 10.4453125 C123.20381949 16.18998168 123.17216184 20.26322966 119.9375 25.25 C115.1875 24.5 115.1875 24.5 112.9375 22.25 C112.5234375 19.2109375 112.5234375 19.2109375 112.3125 15.625 C112.20035156 13.84222656 112.20035156 13.84222656 112.0859375 12.0234375 C112.03695312 11.10820312 111.98796875 10.19296875 111.9375 9.25 C110.95910156 9.26740234 110.95910156 9.26740234 109.9609375 9.28515625 C105.1613086 9.33470994 100.65965315 9.24413751 95.9375 8.25 C96.9275 11.22 96.9275 11.22 97.9375 14.25 C100.5775 14.58 103.2175 14.91 105.9375 15.25 C105.9375 16.57 105.9375 17.89 105.9375 19.25 C103.06508604 21.68719972 101.13132085 22.2295978 97.375 22.625 C93.9375 22.25 93.9375 22.25 91.8125 20.625 C91.19375 20.17125 90.575 19.7175 89.9375 19.25 C87.28504398 19.91096786 87.28504398 19.91096786 84.9375 21.25 C81.93436252 22.75156874 79.14682478 22.34281204 75.8125 22.3125 C74.53117187 22.30347656 73.24984375 22.29445313 71.9296875 22.28515625 C70.44855469 22.26775391 70.44855469 22.26775391 68.9375 22.25 C67.9475 20.27 67.9475 20.27 66.9375 18.25 C65.885625 18.91 64.83375 19.57 63.75 20.25 C60.67661964 22.0044398 58.53796986 22.86722341 54.9375 22.25 C53.9475 21.26 53.9475 21.26 52.9375 20.25 C51.9475 20.91 50.9575 21.57 49.9375 22.25 C47.5625 22.4453125 47.5625 22.4453125 44.9375 22.375 C43.638125 22.34792969 43.638125 22.34792969 42.3125 22.3203125 C41.52875 22.29710938 40.745 22.27390625 39.9375 22.25 C38.06105154 22.25 36.18437142 22.27014311 34.30859375 22.3203125 C33.34050781 22.33835937 32.37242188 22.35640625 31.375 22.375 C29.91900391 22.40980469 29.91900391 22.40980469 28.43359375 22.4453125 C25.9375 22.25 25.9375 22.25 23.9375 20.25 C23.2775 20.91 22.6175 21.57 21.9375 22.25 C19.24910615 22.51991906 16.64608064 22.33737357 13.9375 22.25 C13.6075 18.62 13.2775 14.99 12.9375 11.25 C12.31875 12.219375 11.7 13.18875 11.0625 14.1875 C8.9375 17.25 8.9375 17.25 6.9375 18.25 C4.2651379 18.38415472 1.61499512 18.29318541 -1.0625 18.25 C-1.0625 19.57 -1.0625 20.89 -1.0625 22.25 C-7.21484375 22.34765625 -7.21484375 22.34765625 -9.0625 22.25 C-10.0625 21.25 -10.0625 21.25 -10.16015625 18.30859375 C-10.14855469 17.11363281 -10.13695312 15.91867188 -10.125 14.6875 C-10.11597656 13.48996094 -10.10695313 12.29242188 -10.09765625 11.05859375 C-10.08605469 10.13175781 -10.07445312 9.20492188 -10.0625 8.25 C-11.3825 7.92 -12.7025 7.59 -14.0625 7.25 C-14.0625 5.93 -14.0625 4.61 -14.0625 3.25 C-9.84997643 -0.52850599 -5.33251434 -0.13772434 0 0 Z M84.9375 6.25 C84.2775 6.91 83.6175 7.57 82.9375 8.25 C83.2560177 10.35820797 83.2560177 10.35820797 83.9375 12.25 C82.2875 12.91 80.6375 13.57 78.9375 14.25 C78.9375 14.58 78.9375 14.91 78.9375 15.25 C81.9075 15.25 84.8775 15.25 87.9375 15.25 C87.6075 12.28 87.2775 9.31 86.9375 6.25 C86.2775 6.25 85.6175 6.25 84.9375 6.25 Z M-1.0625 8.25 C-1.0625 9.9 -1.0625 11.55 -1.0625 13.25 C0.9774719 11.88676257 0.9774719 11.88676257 2.9375 10.25 C2.9375 9.59 2.9375 8.93 2.9375 8.25 C1.6175 8.25 0.2975 8.25 -1.0625 8.25 Z M22.9375 8.25 C23.2675 9.57 23.5975 10.89 23.9375 12.25 C24.5975 10.93 25.2575 9.61 25.9375 8.25 C24.9475 8.25 23.9575 8.25 22.9375 8.25 Z M43.9375 8.25 C42.64116379 9.31645115 42.64116379 9.31645115 42.875 11.8125 C42.895625 12.616875 42.91625 13.42125 42.9375 14.25 C44.2575 14.25 45.5775 14.25 46.9375 14.25 C46.9375 12.27 46.9375 10.29 46.9375 8.25 C45.9475 8.25 44.9575 8.25 43.9375 8.25 Z " fill="#75BEBE" transform="translate(31.0625,13.75)"/>
<path d="M0 0 C1.42103279 0.00636726 1.42103279 0.00636726 2.87077332 0.01286316 C5.88679822 0.02961186 8.90214691 0.06725729 11.91796875 0.10546875 C13.9667872 0.1205205 16.01561616 0.13420805 18.06445312 0.14648438 C23.07838425 0.17950296 28.09181197 0.23125928 33.10546875 0.29296875 C33.10546875 0.95296875 33.10546875 1.61296875 33.10546875 2.29296875 C33.60046875 1.96296875 34.09546875 1.63296875 34.60546875 1.29296875 C38.20847382 -0.14823328 41.22938193 0.16793369 45.10546875 0.29296875 C47.24060171 0.29296875 49.37278973 0.25368133 51.50756836 0.21362305 C56.58651431 0.12366089 61.66536643 0.06588216 66.74487305 0.01831055 C68.9419344 -0.00689817 71.1389114 -0.04106493 73.33569336 -0.08422852 C76.49744272 -0.14475296 79.65809051 -0.17320654 82.8203125 -0.1953125 C83.80474838 -0.22111893 84.78918427 -0.24692535 85.80345154 -0.27351379 C88.33628746 -0.27456002 90.62930478 -0.2397599 93.10546875 0.29296875 C95.31502349 2.77219654 96.08200835 4.05425958 96.14453125 7.35546875 C96.00789063 7.99484375 95.87125 8.63421875 95.73046875 9.29296875 C95.05337652 12.5854957 95.32102659 15.0187754 96.10546875 18.29296875 C78.10546875 18.29296875 60.10546875 18.29296875 42.10546875 18.29296875 C42.10546875 17.30296875 42.10546875 16.31296875 42.10546875 15.29296875 C40.1301013 15.64083583 40.1301013 15.64083583 38.10546875 16.29296875 C37.77546875 16.95296875 37.44546875 17.61296875 37.10546875 18.29296875 C23.10546875 18.29296875 9.10546875 18.29296875 -4.89453125 18.29296875 C-5.22453125 17.30296875 -5.55453125 16.31296875 -5.89453125 15.29296875 C-7.21453125 15.29296875 -8.53453125 15.29296875 -9.89453125 15.29296875 C-10.22453125 16.28296875 -10.55453125 17.27296875 -10.89453125 18.29296875 C-13.20453125 18.29296875 -15.51453125 18.29296875 -17.89453125 18.29296875 C-19.14530762 14.54063965 -18.46638368 13.02057022 -17.26953125 9.29296875 C-16.94726562 8.24109375 -16.625 7.18921875 -16.29296875 6.10546875 C-12.88565438 -0.74723054 -6.74164087 -0.11411289 0 0 Z M7.10546875 7.29296875 C7.43546875 7.95296875 7.76546875 8.61296875 8.10546875 9.29296875 C8.43546875 8.63296875 8.76546875 7.97296875 9.10546875 7.29296875 C8.44546875 7.29296875 7.78546875 7.29296875 7.10546875 7.29296875 Z M23.10546875 7.29296875 C23.43546875 8.28296875 23.76546875 9.27296875 24.10546875 10.29296875 C24.43546875 9.30296875 24.76546875 8.31296875 25.10546875 7.29296875 C24.44546875 7.29296875 23.78546875 7.29296875 23.10546875 7.29296875 Z M47.10546875 7.29296875 C48.09546875 8.77796875 48.09546875 8.77796875 49.10546875 10.29296875 C50.09546875 9.30296875 51.08546875 8.31296875 52.10546875 7.29296875 C50.45546875 7.29296875 48.80546875 7.29296875 47.10546875 7.29296875 Z M76.10546875 7.29296875 C75.44546875 8.61296875 74.78546875 9.93296875 74.10546875 11.29296875 C75.09546875 11.29296875 76.08546875 11.29296875 77.10546875 11.29296875 C76.77546875 9.97296875 76.44546875 8.65296875 76.10546875 7.29296875 Z M85.10546875 7.29296875 C86.10546875 9.29296875 86.10546875 9.29296875 86.10546875 9.29296875 Z " fill="#76BFBF" transform="translate(68.89453125,39.70703125)"/>
<path d="M0 0 C1.99954746 -0.04254356 4.00041636 -0.04080783 6 0 C6.33 0.33 6.66 0.66 7 1 C9.69654854 1.07319621 12.36691458 1.09242537 15.0625 1.0625 C16.20041992 1.05573242 16.20041992 1.05573242 17.36132812 1.04882812 C19.24091871 1.0370068 21.12046899 1.01907078 23 1 C22.01 1.495 22.01 1.495 21 2 C21 2.66 21 3.32 21 4 C18.36 4 15.72 4 13 4 C13 4.99 13 5.98 13 7 C15.31 7 17.62 7 20 7 C19.01 8.98 18.02 10.96 17 13 C19.97 13 22.94 13 26 13 C26.09796875 12.22914062 26.1959375 11.45828125 26.296875 10.6640625 C26.44640625 9.66117188 26.5959375 8.65828125 26.75 7.625 C26.88921875 6.62726562 27.0284375 5.62953125 27.171875 4.6015625 C28 2 28 2 29.65625 0.65625 C32.75684384 -0.21191627 35.53453212 -0.18930936 38.75 -0.125 C39.92046875 -0.10695313 41.0909375 -0.08890625 42.296875 -0.0703125 C43.63492188 -0.03550781 43.63492188 -0.03550781 45 0 C45 0.66 45 1.32 45 2 C45.66 1.67 46.32 1.34 47 1 C48.37548156 0.91691362 49.75485796 0.89263984 51.1328125 0.90234375 C51.93847656 0.90556641 52.74414062 0.90878906 53.57421875 0.91210938 C54.41597656 0.92048828 55.25773437 0.92886719 56.125 0.9375 C56.97449219 0.94201172 57.82398438 0.94652344 58.69921875 0.95117188 C60.79950909 0.96297126 62.8997633 0.98090694 65 1 C65 1.99 65 2.98 65 4 C63.02 4 61.04 4 59 4 C59.01160156 4.74765625 59.02320313 5.4953125 59.03515625 6.265625 C59.04417969 7.25046875 59.05320313 8.2353125 59.0625 9.25 C59.07410156 10.22453125 59.08570313 11.1990625 59.09765625 12.203125 C59 15 59 15 58.43359375 17.234375 C57.77560823 19.09090023 57.77560823 19.09090023 59 21 C58.67 21.66 58.34 22.32 58 23 C53.25 22.25 53.25 22.25 51 20 C50.5859375 16.9609375 50.5859375 16.9609375 50.375 13.375 C50.30023438 12.18648437 50.22546875 10.99796875 50.1484375 9.7734375 C50.09945312 8.85820312 50.05046875 7.94296875 50 7 C49.34773438 7.01160156 48.69546875 7.02320313 48.0234375 7.03515625 C43.2238086 7.08470994 38.72215315 6.99413751 34 6 C34.66 7.98 35.32 9.96 36 12 C38.64 12.33 41.28 12.66 44 13 C44 14.32 44 15.64 44 17 C41.12758604 19.43719972 39.19382085 19.9795978 35.4375 20.375 C32 20 32 20 29.875 18.375 C29.25625 17.92125 28.6375 17.4675 28 17 C25.34754398 17.66096786 25.34754398 17.66096786 23 19 C19.99686252 20.50156874 17.20932478 20.09281204 13.875 20.0625 C12.59367187 20.05347656 11.31234375 20.04445313 9.9921875 20.03515625 C9.00476563 20.02355469 8.01734375 20.01195313 7 20 C6.34 18.68 5.68 17.36 5 16 C4.401875 16.515625 3.80375 17.03125 3.1875 17.5625 C2.465625 18.036875 1.74375 18.51125 1 19 C0.01 18.67 -0.98 18.34 -2 18 C-2 15 -2 15 -1 14 C-0.76472227 11.65012738 -0.58613583 9.29443961 -0.4375 6.9375 C-0.35371094 5.64714844 -0.26992187 4.35679688 -0.18359375 3.02734375 C-0.12300781 2.02832031 -0.06242187 1.02929688 0 0 Z " fill="#6FB4B4" transform="translate(93,16)"/>
<path d="M0 0 C2.91691525 -0.05401695 5.83282724 -0.09368066 8.75 -0.125 C9.575 -0.14175781 10.4 -0.15851562 11.25 -0.17578125 C12.04921875 -0.18222656 12.8484375 -0.18867188 13.671875 -0.1953125 C14.4050293 -0.20578613 15.13818359 -0.21625977 15.89355469 -0.22705078 C18.29896076 0.03222456 19.91251494 0.80774075 22 2 C22.66 1.34 23.32 0.68 24 0 C25.87939453 -0.22705078 25.87939453 -0.22705078 28.1328125 -0.1953125 C29.34130859 -0.18564453 29.34130859 -0.18564453 30.57421875 -0.17578125 C31.83685547 -0.15064453 31.83685547 -0.15064453 33.125 -0.125 C34.39923828 -0.11146484 34.39923828 -0.11146484 35.69921875 -0.09765625 C37.79959884 -0.07405647 39.89983444 -0.03818483 42 0 C42.66 1.65 43.32 3.3 44 5 C44.66 5 45.32 5 46 5 C46.28875 4.360625 46.5775 3.72125 46.875 3.0625 C48 1 48 1 50 0 C52.05859375 -0.203125 52.05859375 -0.203125 54.4375 -0.25 C55.21996094 -0.27578125 56.00242188 -0.3015625 56.80859375 -0.328125 C59.55197403 0.08264852 60.36122138 0.79317848 62 3 C63.52882221 9.01336734 62.95354636 12.16663014 59.91015625 17.53125 C59.60980469 18.0159375 59.30945313 18.500625 59 19 C54.66666667 19 50.33333333 19 46 19 C45.13246094 19.02320312 44.26492187 19.04640625 43.37109375 19.0703125 C42.40300781 19.08835937 41.43492188 19.10640625 40.4375 19.125 C38.98150391 19.15980469 38.98150391 19.15980469 37.49609375 19.1953125 C35 19 35 19 33 17 C32.34 17.66 31.68 18.32 31 19 C28.31160615 19.26991906 25.70858064 19.08737357 23 19 C22.67 15.37 22.34 11.74 22 8 C20.68 8 19.36 8 18 8 C17.34 9.32 16.68 10.64 16 12 C14.35 12 12.7 12 11 12 C11.350625 11.443125 11.70125 10.88625 12.0625 10.3125 C13.40084964 7.62023155 13.40084964 7.62023155 12 3 C7.71 2.67 3.42 2.34 -1 2 C-0.67 1.34 -0.34 0.68 0 0 Z M32 5 C32.33 6.32 32.66 7.64 33 9 C33.66 7.68 34.32 6.36 35 5 C34.01 5 33.02 5 32 5 Z M53 5 C51.70366379 6.06645115 51.70366379 6.06645115 51.9375 8.5625 C51.958125 9.366875 51.97875 10.17125 52 11 C53.32 11 54.64 11 56 11 C56 9.02 56 7.04 56 5 C55.01 5 54.02 5 53 5 Z " fill="#73BBBB" transform="translate(22,17)"/>
<path d="M0 0 C1.47583955 0.0001591 2.95168467 0.00585225 4.42749023 0.01586914 C5.20293686 0.01728409 5.97838348 0.01869904 6.77732849 0.02015686 C9.26361893 0.02577194 11.74982059 0.03832693 14.23608398 0.05102539 C15.91772331 0.05603845 17.59936405 0.06060169 19.28100586 0.06469727 C23.41189965 0.07574626 27.54272674 0.09302094 31.67358398 0.11352539 C31.34358398 2.09352539 31.01358398 4.07352539 30.67358398 6.11352539 C29.02358398 6.44352539 27.37358398 6.77352539 25.67358398 7.11352539 C25.69678711 7.71680664 25.71999023 8.32008789 25.74389648 8.94165039 C25.76194336 9.74086914 25.77999023 10.54008789 25.79858398 11.36352539 C25.82178711 12.15243164 25.84499023 12.94133789 25.86889648 13.75415039 C25.65642178 16.3208448 24.96012504 17.90513209 23.67358398 20.11352539 C18.92358398 19.36352539 18.92358398 19.36352539 16.67358398 17.11352539 C16.47827148 14.94946289 16.47827148 14.94946289 16.54858398 12.48852539 C16.56663086 11.67125977 16.58467773 10.85399414 16.60327148 10.01196289 C16.62647461 9.38547852 16.64967773 8.75899414 16.67358398 8.11352539 C14.69358398 8.44352539 12.71358398 8.77352539 10.67358398 9.11352539 C11.20983398 9.67040039 11.74608398 10.22727539 12.29858398 10.80102539 C12.97920898 11.94571289 12.97920898 11.94571289 13.67358398 13.11352539 C13.01358398 14.76352539 12.35358398 16.41352539 11.67358398 18.11352539 C5.40358398 18.11352539 -0.86641602 18.11352539 -7.32641602 18.11352539 C-7.65641602 16.79352539 -7.98641602 15.47352539 -8.32641602 14.11352539 C-6.34641602 12.46352539 -4.36641602 10.81352539 -2.32641602 9.11352539 C-2.98641602 8.78352539 -3.64641602 8.45352539 -4.32641602 8.11352539 C-4.36883325 5.78057764 -4.36734539 3.44649972 -4.32641602 1.11352539 C-3.32641602 0.11352539 -3.32641602 0.11352539 0 0 Z " fill="#77C1C1" transform="translate(20.326416015625,39.886474609375)"/>
<path d="M0 0 C0.80244141 0.00515625 1.60488281 0.0103125 2.43164062 0.015625 C8.34203537 0.09410327 8.34203537 0.09410327 11.13452148 0.82519531 C11.72950439 0.96538086 12.3244873 1.10556641 12.9375 1.25 C13.2675 0.92 13.5975 0.59 13.9375 0.25 C17.03381103 -0.00068786 20.14473686 0.06477492 23.25 0.0625 C24.11818359 0.05025391 24.98636719 0.03800781 25.88085938 0.02539062 C26.72068359 0.02345703 27.56050781 0.02152344 28.42578125 0.01953125 C29.19446533 0.01542236 29.96314941 0.01131348 30.75512695 0.00708008 C32.9375 0.25 32.9375 0.25 35.01635742 1.3190918 C37.09874576 2.58711025 37.09874576 2.58711025 40.1875 1.375 C41.095 1.00375 42.0025 0.6325 42.9375 0.25 C41.35205592 4.53069903 38.4687417 6.54521912 34.9375 9.25 C34.6075 9.25 34.2775 9.25 33.9375 9.25 C33.4425 6.775 33.4425 6.775 32.9375 4.25 C26.9975 4.25 21.0575 4.25 14.9375 4.25 C18.8975 4.58 22.8575 4.91 26.9375 5.25 C26.9375 5.58 26.9375 5.91 26.9375 6.25 C24.31222811 6.30382106 21.68805287 6.34358313 19.0625 6.375 C18.31613281 6.39175781 17.56976563 6.40851562 16.80078125 6.42578125 C14.84555539 6.4433959 12.89007979 6.35320189 10.9375 6.25 C10.2775 5.59 9.6175 4.93 8.9375 4.25 C7.00068864 3.97345612 7.00068864 3.97345612 4.8046875 4.0546875 C3.99902344 4.06113281 3.19335938 4.06757813 2.36328125 4.07421875 C1.10064453 4.09935547 1.10064453 4.09935547 -0.1875 4.125 C-1.03699219 4.13402344 -1.88648438 4.14304687 -2.76171875 4.15234375 C-4.86209884 4.17594353 -6.96233444 4.21181517 -9.0625 4.25 C-8.21945313 4.29898437 -7.37640625 4.34796875 -6.5078125 4.3984375 C-4.86425781 4.51058594 -4.86425781 4.51058594 -3.1875 4.625 C-2.09695312 4.69460937 -1.00640625 4.76421875 0.1171875 4.8359375 C2.9375 5.25 2.9375 5.25 4.9375 7.25 C4.36931818 12.81818182 4.36931818 12.81818182 2.9375 14.25 C6.62504757 13.75168276 8.54240662 13.14932357 10.9375 10.25 C11.2675 11.24 11.5975 12.23 11.9375 13.25 C8.08126321 18.07029598 8.08126321 18.07029598 4.82421875 18.58203125 C2.85893786 18.5645776 0.89583873 18.41596091 -1.0625 18.25 C-1.0625 19.57 -1.0625 20.89 -1.0625 22.25 C-7.21484375 22.34765625 -7.21484375 22.34765625 -9.0625 22.25 C-10.0625 21.25 -10.0625 21.25 -10.16015625 18.30859375 C-10.14855469 17.11363281 -10.13695312 15.91867188 -10.125 14.6875 C-10.11597656 13.48996094 -10.10695313 12.29242188 -10.09765625 11.05859375 C-10.08605469 10.13175781 -10.07445312 9.20492188 -10.0625 8.25 C-11.3825 7.92 -12.7025 7.59 -14.0625 7.25 C-14.0625 5.93 -14.0625 4.61 -14.0625 3.25 C-9.84997643 -0.52850599 -5.33251434 -0.13772434 0 0 Z M-1.0625 8.25 C-1.0625 9.9 -1.0625 11.55 -1.0625 13.25 C0.9774719 11.88676257 0.9774719 11.88676257 2.9375 10.25 C2.9375 9.59 2.9375 8.93 2.9375 8.25 C1.6175 8.25 0.2975 8.25 -1.0625 8.25 Z " fill="#73BABA" transform="translate(31.0625,13.75)"/>
<path d="M0 0 C1.75570312 0.02707031 1.75570312 0.02707031 3.546875 0.0546875 C4.88492188 0.08949219 4.88492188 0.08949219 6.25 0.125 C6.25 0.785 6.25 1.445 6.25 2.125 C6.91 1.795 7.57 1.465 8.25 1.125 C9.62548156 1.04191362 11.00485796 1.01763984 12.3828125 1.02734375 C13.18847656 1.03056641 13.99414062 1.03378906 14.82421875 1.03710938 C15.66597656 1.04548828 16.50773437 1.05386719 17.375 1.0625 C18.64923828 1.06926758 18.64923828 1.06926758 19.94921875 1.07617188 C22.04950909 1.08797126 24.1497633 1.10590694 26.25 1.125 C26.25 2.115 26.25 3.105 26.25 4.125 C24.27 4.125 22.29 4.125 20.25 4.125 C20.26160156 4.87265625 20.27320313 5.6203125 20.28515625 6.390625 C20.29417969 7.37546875 20.30320313 8.3603125 20.3125 9.375 C20.32410156 10.34953125 20.33570313 11.3240625 20.34765625 12.328125 C20.25 15.125 20.25 15.125 19.68359375 17.359375 C19.02560823 19.21590023 19.02560823 19.21590023 20.25 21.125 C19.92 21.785 19.59 22.445 19.25 23.125 C14.5 22.375 14.5 22.375 12.25 20.125 C11.8359375 17.0859375 11.8359375 17.0859375 11.625 13.5 C11.55023438 12.31148437 11.47546875 11.12296875 11.3984375 9.8984375 C11.34945312 8.98320312 11.30046875 8.06796875 11.25 7.125 C10.59773438 7.13660156 9.94546875 7.14820313 9.2734375 7.16015625 C4.4738086 7.20970994 -0.02784685 7.11913751 -4.75 6.125 C-4.42 7.445 -4.09 8.765 -3.75 10.125 C-4.41 10.125 -5.07 10.125 -5.75 10.125 C-4.5821734 13.93913002 -4.5821734 13.93913002 -1.625 16.4375 C-1.00625 16.664375 -0.3875 16.89125 0.25 17.125 C-6.22630923 17.49158354 -6.22630923 17.49158354 -8.625 15.8125 C-10.69103675 12.71344487 -10.86479534 10.0458786 -10.8125 6.4375 C-10.80347656 5.62925781 -10.79445313 4.82101563 -10.78515625 3.98828125 C-10.77355469 3.37339844 -10.76195313 2.75851563 -10.75 2.125 C-7.15537669 -0.13498595 -4.18404325 -0.08368087 0 0 Z " fill="#6FB5B5" transform="translate(131.75,15.875)"/>
<path d="M0 0 C0.66 0 1.32 0 2 0 C1.68991116 1.60463449 1.37683713 3.20869231 1.0625 4.8125 C0.88847656 5.70582031 0.71445312 6.59914063 0.53515625 7.51953125 C0 10 0 10 -1 13 C-0.01 12.34 0.98 11.68 2 11 C4.04296875 10.5859375 4.04296875 10.5859375 6.1875 10.375 C7.445625 10.25125 8.70375 10.1275 10 10 C10 11.32 10 12.64 10 14 C11.11375 13.7215625 11.11375 13.7215625 12.25 13.4375 C15 13 15 13 19 14 C19 10.37 19 6.74 19 3 C20.98 3 22.96 3 25 3 C25.20086443 6.71599191 25.1519437 7.77208445 23 11 C26.12498166 11.3373846 26.12498166 11.3373846 28.1875 9 C28.785625 8.34 29.38375 7.68 30 7 C31.5 8.375 31.5 8.375 33 10 C33 10.66 33 11.32 33 12 C34.27875 12.020625 35.5575 12.04125 36.875 12.0625 C37.59429687 12.07410156 38.31359375 12.08570313 39.0546875 12.09765625 C41.08185404 12.12649242 41.08185404 12.12649242 43 11 C42.34 12.65 41.68 14.3 41 16 C30.33333333 16 19.66666667 16 9 16 C8.67 15.01 8.34 14.02 8 13 C6.68 13 5.36 13 4 13 C3.67 13.99 3.34 14.98 3 16 C0.69 16 -1.62 16 -4 16 C-5.27710684 12.16867948 -4.44164418 10.64332645 -3.125 6.875 C-2.75632813 5.79992188 -2.38765625 4.72484375 -2.0078125 3.6171875 C-1 1 -1 1 0 0 Z M21 5 C21.33 5.66 21.66 6.32 22 7 C22.33 6.34 22.66 5.68 23 5 C22.34 5 21.68 5 21 5 Z " fill="#75BEBE" transform="translate(55,42)"/>
<path d="M0 0 C0.76441406 -0.00773437 1.52882813 -0.01546875 2.31640625 -0.0234375 C4.97870748 0.47666328 5.82990034 1.21846387 7.4375 3.375 C8.5329403 7.90281992 8.99217222 10.10717779 7.125 14.375 C3.59028246 17.00548747 1.08439824 16.89556419 -3.22265625 16.84375 C-6.02952836 16.28143839 -6.95049964 15.73100053 -8.5625 13.375 C-8.99609375 11 -8.99609375 11 -9 8.375 C-9.01933594 7.50875 -9.03867188 6.6425 -9.05859375 5.75 C-8.5625 3.375 -8.5625 3.375 -6.8203125 1.5859375 C-4.32093516 0.245441 -2.81749687 -0.02860403 0 0 Z M-1.5625 5.375 C-2.85883621 6.44145115 -2.85883621 6.44145115 -2.625 8.9375 C-2.604375 9.741875 -2.58375 10.54625 -2.5625 11.375 C-1.2425 11.375 0.0775 11.375 1.4375 11.375 C1.4375 9.395 1.4375 7.415 1.4375 5.375 C0.4475 5.375 -0.5425 5.375 -1.5625 5.375 Z " fill="#050909" transform="translate(76.5625,16.625)"/>
<path d="M0 0 C1.15733643 0.01571045 2.31467285 0.0314209 3.50708008 0.04760742 C4.76069336 0.05727539 6.01430664 0.06694336 7.3059082 0.0769043 C8.61624023 0.10204102 9.92657227 0.12717773 11.27661133 0.15307617 C12.61188296 0.1681265 13.9471707 0.18181431 15.2824707 0.1940918 C18.55175709 0.22949923 21.82023225 0.27888727 25.08911133 0.34057617 C23.78833008 1.82885742 23.78833008 1.82885742 22.08911133 3.34057617 C18.90161133 3.52807617 18.90161133 3.52807617 16.08911133 3.34057617 C16.08911133 4.33057617 16.08911133 5.32057617 16.08911133 6.34057617 C17.40911133 6.67057617 18.72911133 7.00057617 20.08911133 7.34057617 C18.43911133 7.67057617 16.78911133 8.00057617 15.08911133 8.34057617 C15.08911133 9.66057617 15.08911133 10.98057617 15.08911133 12.34057617 C17.39911133 12.34057617 19.70911133 12.34057617 22.08911133 12.34057617 C21.75911133 13.00057617 21.42911133 13.66057617 21.08911133 14.34057617 C18.11911133 14.34057617 15.14911133 14.34057617 12.08911133 14.34057617 C11.59411133 9.39057617 11.59411133 9.39057617 11.08911133 4.34057617 C9.78973633 5.28932617 8.49036133 6.23807617 7.15161133 7.21557617 C6.05526367 8.01608398 6.05526367 8.01608398 4.93676758 8.83276367 C2.97812898 10.22069721 2.97812898 10.22069721 2.08911133 12.34057617 C4.72911133 12.34057617 7.36911133 12.34057617 10.08911133 12.34057617 C10.08911133 12.67057617 10.08911133 13.00057617 10.08911133 13.34057617 C6.12911133 13.34057617 2.16911133 13.34057617 -1.91088867 13.34057617 C-0.55182214 7.90431006 1.51639095 7.33362951 6.08911133 4.34057617 C2.12911133 4.01057617 -1.83088867 3.68057617 -5.91088867 3.34057617 C-2.91088867 0.34057617 -2.91088867 0.34057617 0 0 Z " fill="#335656" transform="translate(120.910888671875,41.659423828125)"/>
<path d="M0 0 C2.10353495 -0.0810206 4.20795952 -0.13919907 6.3125 -0.1875 C7.48425781 -0.22230469 8.65601562 -0.25710937 9.86328125 -0.29296875 C13 0 13 0 14.91796875 1.51171875 C15.45357422 2.24841797 15.45357422 2.24841797 16 3 C16.37769531 2.50886719 16.75539063 2.01773438 17.14453125 1.51171875 C19.71063292 -0.57897883 21.42570933 -0.30262202 24.6875 -0.1875 C25.68136719 -0.16042969 26.67523438 -0.13335937 27.69921875 -0.10546875 C28.83810547 -0.05326172 28.83810547 -0.05326172 30 0 C29.01 1.485 29.01 1.485 28 3 C26.0546875 3.29296875 26.0546875 3.29296875 23.875 3.1875 C22.59625 3.125625 21.3175 3.06375 20 3 C20.33 5.31 20.66 7.62 21 10 C22.32 10 23.64 10 25 10 C25.33 9.01 25.66 8.02 26 7 C26.99 7 27.98 7 29 7 C28.42655063 9.86724686 28.1385485 10.8614515 26 13 C20.71550256 13.56218058 20.71550256 13.56218058 18.25 11.625 C17.8375 11.08875 17.425 10.5525 17 10 C16.34 9.34 15.68 8.68 15 8 C14.01 8.99 13.02 9.98 12 11 C12.33 11.66 12.66 12.32 13 13 C11.35 12.67 9.7 12.34 8 12 C8 9 8 9 9 8 C9 6.35 9 4.7 9 3 C5.7 2.67 2.4 2.34 -1 2 C-0.67 1.34 -0.34 0.68 0 0 Z " fill="#599292" transform="translate(70,42)"/>
<path d="M0 0 C1.77503906 0.03480469 1.77503906 0.03480469 3.5859375 0.0703125 C5.36871094 0.09738281 5.36871094 0.09738281 7.1875 0.125 C8.10273438 0.14820313 9.01796875 0.17140625 9.9609375 0.1953125 C9.6309375 1.1853125 9.3009375 2.1753125 8.9609375 3.1953125 C5.9909375 3.1953125 3.0209375 3.1953125 -0.0390625 3.1953125 C-0.0390625 3.8553125 -0.0390625 4.5153125 -0.0390625 5.1953125 C0.7034375 5.4428125 1.4459375 5.6903125 2.2109375 5.9453125 C5.21067205 7.3088282 6.88171017 8.65403465 8.9609375 11.1953125 C8.9609375 12.1853125 8.9609375 13.1753125 8.9609375 14.1953125 C3.6809375 14.1953125 -1.5990625 14.1953125 -7.0390625 14.1953125 C-5.0390625 9.1953125 -5.0390625 9.1953125 -4.0390625 7.1953125 C-4.6990625 6.8653125 -5.3590625 6.5353125 -6.0390625 6.1953125 C-5.21409784 2.07048918 -4.53778392 0.29163136 0 0 Z " fill="#6CB0B0" transform="translate(22.0390625,41.8046875)"/>
<path d="M0 0 C11.55 0 23.1 0 35 0 C34.67 1.98 34.34 3.96 34 6 C32.35 6.33 30.7 6.66 29 7 C29 9.97 29 12.94 29 16 C28.01 16.33 27.02 16.66 26 17 C26.33 13.04 26.66 9.08 27 5 C28.65 5 30.3 5 32 5 C32 4.01 32 3.02 32 2 C30.51113281 2.10828125 30.51113281 2.10828125 28.9921875 2.21875 C20.88801586 2.77963052 12.91985313 3.07364365 4.79296875 2.83984375 C1.78801167 2.77576791 1.78801167 2.77576791 -1 5 C-0.67 3.35 -0.34 1.7 0 0 Z " fill="#7DC9C9" transform="translate(17,40)"/>
<path d="M0 0 C1.10589478 0.00616333 1.10589478 0.00616333 2.23413086 0.01245117 C3.0352832 0.01438477 3.83643555 0.01631836 4.66186523 0.01831055 C5.49911133 0.03055664 6.33635742 0.04280273 7.19897461 0.05541992 C8.46064453 0.05638672 8.46064453 0.05638672 9.74780273 0.05737305 C15.99624277 0.10268808 15.99624277 0.10268808 17.13647461 1.24291992 C16.58559473 9.64383806 16.58559473 9.64383806 13.13647461 13.24291992 C14.45647461 14.56291992 15.77647461 15.88291992 17.13647461 17.24291992 C13.82397461 17.55541992 13.82397461 17.55541992 10.13647461 17.24291992 C8.19897461 14.74291992 8.19897461 14.74291992 7.13647461 12.24291992 C7.81709961 11.68604492 8.49772461 11.12916992 9.19897461 10.55541992 C9.83834961 9.79229492 10.47772461 9.02916992 11.13647461 8.24291992 C10.80647461 6.59291992 10.47647461 4.94291992 10.13647461 3.24291992 C3.20647461 2.74791992 3.20647461 2.74791992 -3.86352539 2.24291992 C-1.86352539 0.24291992 -1.86352539 0.24291992 0 0 Z " fill="#060C0C" transform="translate(47.863525390625,16.757080078125)"/>
<path d="M0 0 C0.99 3.96 1.98 7.92 3 12 C2.01 12 1.02 12 0 12 C0 11.01 0 10.02 0 9 C-5.445 10.485 -5.445 10.485 -11 12 C-9.52978489 2.56611969 -9.52978489 2.56611969 -7.234375 0.11328125 C-5 -1 -5 -1 0 0 Z " fill="#62A0A0" transform="translate(65,43)"/>
<path d="M0 0 C1.99954746 -0.04254356 4.00041636 -0.04080783 6 0 C6.33 0.33 6.66 0.66 7 1 C9.69654854 1.07319621 12.36691458 1.09242537 15.0625 1.0625 C16.20041992 1.05573242 16.20041992 1.05573242 17.36132812 1.04882812 C19.24091871 1.0370068 21.12046899 1.01907078 23 1 C21 3 21 3 17.5234375 3.1953125 C16.14049032 3.18201493 14.75761346 3.15816232 13.375 3.125 C12.66859375 3.11597656 11.9621875 3.10695313 11.234375 3.09765625 C9.48943902 3.07407603 7.74467705 3.03820461 6 3 C5.9175 4.216875 5.835 5.43375 5.75 6.6875 C5.23223688 10.80043517 4.07776801 13.09810445 1 16 C-1.25 16.8125 -1.25 16.8125 -3 17 C-2.01 15.515 -2.01 15.515 -1 14 C-0.70547416 11.61322924 -0.5071783 9.21373906 -0.375 6.8125 C-0.30023438 5.54019531 -0.22546875 4.26789062 -0.1484375 2.95703125 C-0.09945312 1.98121094 -0.05046875 1.00539063 0 0 Z " fill="#0D1616" transform="translate(93,16)"/>
<path d="M0 0 C1.17889549 -0.01262878 1.17889549 -0.01262878 2.38160706 -0.0255127 C3.27270676 -0.04142456 4.16380646 -0.05733643 5.08190918 -0.07373047 C6.04649551 -0.07393188 7.01108185 -0.0741333 8.00489807 -0.07434082 C8.99377518 -0.08195435 9.98265228 -0.08956787 11.00149536 -0.09741211 C13.09545869 -0.10823048 15.18947606 -0.11105919 17.28346252 -0.10656738 C20.49295323 -0.10559562 23.70005015 -0.1471861 26.90919495 -0.19152832 C28.94109098 -0.19673541 30.97299536 -0.19942351 33.00489807 -0.19934082 C34.44874123 -0.22393372 34.44874123 -0.22393372 35.92175293 -0.24902344 C38.40720436 -0.22316029 40.6488212 -0.16207077 43.07130432 0.39440918 C45.23772855 2.848746 46.07130432 4.12789728 46.07130432 7.39440918 C45.08130432 7.72440918 44.09130432 8.05440918 43.07130432 8.39440918 C42.41130432 6.74440918 41.75130432 5.09440918 41.07130432 3.39440918 C26.22130432 3.39440918 11.37130432 3.39440918 -3.92869568 3.39440918 C-1.92869568 0.39440918 -1.92869568 0.39440918 0 0 Z " fill="#7CC9C9" transform="translate(118.92869567871094,39.6055908203125)"/>
<path d="M0 0 C3.2578125 -0.29296875 3.2578125 -0.29296875 7.125 -0.1875 C9.04699219 -0.14689453 9.04699219 -0.14689453 11.0078125 -0.10546875 C11.99523438 -0.07066406 12.98265625 -0.03585938 14 0 C14 0.99 14 1.98 14 3 C12.35 3 10.7 3 9 3 C9.02320313 3.61488281 9.04640625 4.22976562 9.0703125 4.86328125 C9.09738281 6.07564453 9.09738281 6.07564453 9.125 7.3125 C9.14820313 8.11300781 9.17140625 8.91351563 9.1953125 9.73828125 C9 12 9 12 7 15 C6.01 14.67 5.02 14.34 4 14 C4 10.37 4 6.74 4 3 C2.02 3 0.04 3 -2 3 C-1.34 2.01 -0.68 1.02 0 0 Z " fill="#335555" transform="translate(35,42)"/>
<path d="M0 0 C3.63 0.33 7.26 0.66 11 1 C11 1.33 11 1.66 11 2 C9.35 2 7.7 2 6 2 C6 5.63 6 9.26 6 13 C3.03 13 0.06 13 -3 13 C-2.01 12.67 -1.02 12.34 0 12 C-0.495 10.9171875 -0.495 10.9171875 -1 9.8125 C-2.00603529 6.98302573 -2.16977402 4.97104534 -2 2 C-1.34 2 -0.68 2 0 2 C0 1.34 0 0.68 0 0 Z " fill="#65A4A4" transform="translate(68,43)"/>
<path d="M0 0 C2.97922593 -0.02683987 5.95821295 -0.04676037 8.9375 -0.0625 C9.78763672 -0.07087891 10.63777344 -0.07925781 11.51367188 -0.08789062 C12.32255859 -0.09111328 13.13144531 -0.09433594 13.96484375 -0.09765625 C14.7137085 -0.10289307 15.46257324 -0.10812988 16.23413086 -0.11352539 C18 0 18 0 19 1 C19.27076488 4.58763463 19.40504651 7.16858874 17.8125 10.4375 C16 12 16 12 13.3125 12.25 C12.549375 12.1675 11.78625 12.085 11 12 C11.350625 11.443125 11.70125 10.88625 12.0625 10.3125 C13.40084964 7.62023155 13.40084964 7.62023155 12 3 C7.71 2.67 3.42 2.34 -1 2 C-0.67 1.34 -0.34 0.68 0 0 Z " fill="#040707" transform="translate(22,17)"/>
<path d="M0 0 C2.12472576 -0.05386629 4.24983652 -0.09273071 6.375 -0.125 C7.55835938 -0.14820313 8.74171875 -0.17140625 9.9609375 -0.1953125 C13 0 13 0 15 2 C14.54545455 7.45454545 14.54545455 7.45454545 12 10 C12.99 11.32 13.98 12.64 15 14 C12.6875 14.25 12.6875 14.25 10 14 C8.1875 12 8.1875 12 7 10 C7.7115625 9.38125 7.7115625 9.38125 8.4375 8.75 C10.36284249 6.86673565 10.36284249 6.86673565 11 3 C7.37 2.67 3.74 2.34 0 2 C0 1.34 0 0.68 0 0 Z " fill="#101C1C" transform="translate(147,42)"/>
<path d="M0 0 C1.98 0 3.96 0 6 0 C6.55353075 10.55808656 6.55353075 10.55808656 3 15 C2.01 14.34 1.02 13.68 0 13 C-0.29296875 9.9609375 -0.29296875 9.9609375 -0.1875 6.375 C-0.16042969 5.18648437 -0.13335937 3.99796875 -0.10546875 2.7734375 C-0.07066406 1.85820312 -0.03585938 0.94296875 0 0 Z " fill="#080E0E" transform="translate(146,21)"/>
<path d="M0 0 C1.32 0 2.64 0 4 0 C4 0.99 4 1.98 4 3 C5.65 3 7.3 3 9 3 C8.67 3.66 8.34 4.32 8 5 C6.68 5 5.36 5 4 5 C4 6.65 4 8.3 4 10 C7.3 10 10.6 10 14 10 C12 12 12 12 9.1796875 12.1953125 C6.11979167 12.13020833 3.05989583 12.06510417 0 12 C0 8.04 0 4.08 0 0 Z " fill="#020505" transform="translate(102,21)"/>
<path d="M0 0 C2.14576637 -0.02685938 4.29162645 -0.04633088 6.4375 -0.0625 C7.63246094 -0.07410156 8.82742187 -0.08570313 10.05859375 -0.09765625 C13 0 13 0 14 1 C14.26994254 5.04913807 13.89725693 7.45845373 12 11 C12.33 11.66 12.66 12.32 13 13 C11.35 12.67 9.7 12.34 8 12 C8 9 8 9 9 8 C9 6.35 9 4.7 9 3 C5.7 2.67 2.4 2.34 -1 2 C-0.67 1.34 -0.34 0.68 0 0 Z " fill="#0C1616" transform="translate(70,42)"/>
<path d="M0 0 C1.2375 0.1546875 1.2375 0.1546875 2.5 0.3125 C4.81332486 3.78248729 4.83957563 5.23759248 4.5 9.3125 C3.51 10.7975 3.51 10.7975 2.5 12.3125 C-0.625 12.5 -0.625 12.5 -3.5 12.3125 C-4.61445498 10.08359005 -4.66480286 8.78194894 -4.6875 6.3125 C-4.70167969 5.61125 -4.71585937 4.91 -4.73046875 4.1875 C-4.34292737 1.03462097 -3.01199971 0.37649996 0 0 Z M-1.5 3.3125 C-2.79633621 4.37895115 -2.79633621 4.37895115 -2.5625 6.875 C-2.541875 7.679375 -2.52125 8.48375 -2.5 9.3125 C-1.18 9.3125 0.14 9.3125 1.5 9.3125 C1.5 7.3325 1.5 5.3525 1.5 3.3125 C0.51 3.3125 -0.48 3.3125 -1.5 3.3125 Z " fill="#6DB2B2" transform="translate(76.5,18.6875)"/>
<path d="M0 0 C7.92373906 0.18624173 7.92373906 0.18624173 11.5625 2.9375 C13.61100788 7.30171244 13.33141661 11.25890123 13 16 C11.35 16.66 9.7 17.32 8 18 C8.350625 17.505 8.70125 17.01 9.0625 16.5 C10.48822766 12.69805956 9.76977269 9.97715892 9 6 C5.99382731 2.99382731 3.17618402 3.40414684 -1 3 C-0.67 2.01 -0.34 1.02 0 0 Z " fill="#72B8B8" transform="translate(74,14)"/>
<path d="M0 0 C4.96702804 1.27063508 7.71893937 3.04342689 11 7 C11 7.99 11 8.98 11 10 C5.72 10 0.44 10 -5 10 C-4.34 9.01 -3.68 8.02 -3 7 C0.3 7.33 3.6 7.66 7 8 C6.21625 7.236875 5.4325 6.47375 4.625 5.6875 C2 3 2 3 0 0 Z " fill="#172727" transform="translate(20,46)"/>
<path d="M0 0 C0.66 0 1.32 0 2 0 C2 0.99 2 1.98 2 3 C4.4377963 3.05397335 6.87439685 3.09365616 9.3125 3.125 C10.34793945 3.15013672 10.34793945 3.15013672 11.40429688 3.17578125 C15.17135396 3.21217794 16.78431704 3.14378864 20 1 C19.34 2.65 18.68 4.3 18 6 C11.73 6 5.46 6 -1 6 C-1.33 4.68 -1.66 3.36 -2 2 C-1.34 1.34 -0.68 0.68 0 0 Z " fill="#7DCACA" transform="translate(14,52)"/>
<path d="M0 0 C1.65 0.33 3.3 0.66 5 1 C5.50757862 2.41396902 6.00574925 3.83131729 6.5 5.25 C6.7784375 6.03890625 7.056875 6.8278125 7.34375 7.640625 C8 10 8 10 8 14 C7.01 14 6.02 14 5 14 C4.32880451 12.5437455 3.66318193 11.08492133 3 9.625 C2.62875 8.81289063 2.2575 8.00078125 1.875 7.1640625 C1 5 1 5 1 3 C0.34 3 -0.32 3 -1 3 C-0.67 2.01 -0.34 1.02 0 0 Z " fill="#101C1C" transform="translate(108,42)"/>
<path d="M0 0 C1.32 0 2.64 0 4 0 C4 4.29 4 8.58 4 13 C2.68 13 1.36 13 0 13 C0 8.71 0 4.42 0 0 Z " fill="#080E0E" transform="translate(24,21)"/>
<path d="M0 0 C0.33 0.66 0.66 1.32 1 2 C0.01 3.485 0.01 3.485 -1 5 C-3.625 5.1875 -3.625 5.1875 -6 5 C-5.96519531 5.75925781 -5.93039063 6.51851562 -5.89453125 7.30078125 C-5.86746094 8.29464844 -5.84039062 9.28851563 -5.8125 10.3125 C-5.77769531 11.29863281 -5.74289063 12.28476562 -5.70703125 13.30078125 C-6 16 -6 16 -7.51171875 17.85546875 C-8.00285156 18.23316406 -8.49398437 18.61085938 -9 19 C-9.33 18.01 -9.66 17.02 -10 16 C-9.67 15.34 -9.34 14.68 -9 14 C-8.7724985 12.12943209 -8.59037189 10.25314042 -8.4375 8.375 C-8.35371094 7.37210938 -8.26992187 6.36921875 -8.18359375 5.3359375 C-8.12300781 4.56507812 -8.06242188 3.79421875 -8 3 C-6.02 3 -4.04 3 -2 3 C-2 2.34 -2 1.68 -2 1 C-1.34 0.67 -0.68 0.34 0 0 Z " fill="#7AC6C6" transform="translate(160,17)"/>
<path d="M0 0 C1.32 0 2.64 0 4 0 C4.08636719 0.62648438 4.17273438 1.25296875 4.26171875 1.8984375 C4.68626709 4.36782875 5.14272416 6.64356842 6 9 C8.47014472 10.67613187 8.47014472 10.67613187 11 11 C11 11.33 11 11.66 11 12 C4.50874832 12.36742934 4.50874832 12.36742934 2.3125 10.78125 C0.67597796 8.56025581 0.51059486 7.04620902 0.3125 4.3125 C0.24675781 3.50425781 0.18101563 2.69601563 0.11328125 1.86328125 C0.07589844 1.24839844 0.03851563 0.63351563 0 0 Z " fill="#020303" transform="translate(121,21)"/>
<path d="M0 0 C0.99 0 1.98 0 3 0 C3.33 1.98 3.66 3.96 4 6 C5.32 6 6.64 6 8 6 C8.33 5.01 8.66 4.02 9 3 C9.99 3 10.98 3 12 3 C11.42655063 5.86724686 11.1385485 6.8614515 9 9 C5.89652746 9.33015665 3.84218824 9.50531294 1.125 7.875 C-0.4682099 5.21965017 -0.20214032 3.03210482 0 0 Z " fill="#0B1414" transform="translate(87,46)"/>
<path d="M0 0 C1.65 0.33 3.3 0.66 5 1 C5.99 4.96 6.98 8.92 8 13 C7.01 13 6.02 13 5 13 C4.73445313 12.36191406 4.46890625 11.72382812 4.1953125 11.06640625 C3.84210937 10.24011719 3.48890625 9.41382813 3.125 8.5625 C2.77695312 7.73878906 2.42890625 6.91507813 2.0703125 6.06640625 C1.1755063 3.84253285 1.1755063 3.84253285 -1 3 C-0.67 2.01 -0.34 1.02 0 0 Z " fill="#080F0F" transform="translate(60,42)"/>
<path d="M0 0 C1.32 0 2.64 0 4 0 C4 3.96 4 7.92 4 12 C2.68 12 1.36 12 0 12 C0 8.04 0 4.08 0 0 Z " fill="#010202" transform="translate(47,21)"/>
<path d="M0 0 C3 1 3 1 4 3 C5.89533342 3.46523063 5.89533342 3.46523063 8.0625 3.625 C9.361875 3.74875 10.66125 3.8725 12 4 C12 5.32 12 6.64 12 8 C10.35 8.66 8.7 9.32 7 10 C7.33 9.01 7.66 8.02 8 7 C5.69 6.34 3.38 5.68 1 5 C0.67 3.35 0.34 1.7 0 0 Z " fill="#79C4C4" transform="translate(125,25)"/>
<path d="M0 0 C-1.52994792 1.23697917 -3.05989583 2.47395833 -4.58984375 3.7109375 C-6.13266437 4.9666391 -6.13266437 4.9666391 -7 7 C-4.36 7 -1.72 7 1 7 C1 7.33 1 7.66 1 8 C-2.96 8 -6.92 8 -11 8 C-9.96847172 3.87388688 -9.84045635 3.43289251 -6.625 1.1875 C-6.01914063 0.74792969 -5.41328125 0.30835938 -4.7890625 -0.14453125 C-3 -1 -3 -1 0 0 Z " fill="#0F1B1B" transform="translate(130,47)"/>
<path d="M0 0 C0.99 0 1.98 0 3 0 C3 0.99 3 1.98 3 3 C3.99 3.33 4.98 3.66 6 4 C6 4.66 6 5.32 6 6 C4.35 6.33 2.7 6.66 1 7 C0.67 7.99 0.34 8.98 0 10 C-0.99 10 -1.98 10 -3 10 C-2.69201674 8.51988629 -2.378482 7.04092675 -2.0625 5.5625 C-1.88847656 4.73878906 -1.71445313 3.91507813 -1.53515625 3.06640625 C-1 1 -1 1 0 0 Z " fill="#101C1C" transform="translate(104,46)"/>
<path d="M0 0 C0.99 0.495 0.99 0.495 2 1 C1.01 1.495 1.01 1.495 0 2 C0 1.34 0 0.68 0 0 Z M-8 2 C-5.36 2 -2.72 2 0 2 C0.66 3.32 1.32 4.64 2 6 C0.68 7.32 -0.64 8.64 -2 10 C-2.66 9.67 -3.32 9.34 -4 9 C-3.34 8.01 -2.68 7.02 -2 6 C-4.97 5.505 -4.97 5.505 -8 5 C-8 4.01 -8 3.02 -8 2 Z " fill="#7BC7C7" transform="translate(114,18)"/>
<path d="M0 0 C1.87939453 -0.34057617 1.87939453 -0.34057617 4.1328125 -0.29296875 C4.93847656 -0.28330078 5.74414062 -0.27363281 6.57421875 -0.26367188 C7.41597656 -0.23853516 8.25773438 -0.21339844 9.125 -0.1875 C9.97449219 -0.17396484 10.82398438 -0.16042969 11.69921875 -0.14648438 C13.79974837 -0.11108219 15.89995293 -0.05727401 18 0 C18 0.66 18 1.32 18 2 C11.4 2.33 4.8 2.66 -2 3 C-1.34 2.01 -0.68 1.02 0 0 Z " fill="#010303" transform="translate(140,17)"/>
<path d="M0 0 C1.32 0 2.64 0 4 0 C4.25 7.625 4.25 7.625 2 11 C1.34 11 0.68 11 0 11 C0 7.37 0 3.74 0 0 Z " fill="#020404" transform="translate(40,46)"/>
<path d="M0 0 C0.99 0 1.98 0 3 0 C2.67 1.32 2.34 2.64 2 4 C3.32 4 4.64 4 6 4 C6 4.66 6 5.32 6 6 C4.35 6 2.7 6 1 6 C0.67 6.99 0.34 7.98 0 9 C-0.66 9 -1.32 9 -2 9 C-1.34 6.03 -0.68 3.06 0 0 Z " fill="#030606" transform="translate(56,46)"/>
<path d="M0 0 C0.66 0 1.32 0 2 0 C2 0.66 2 1.32 2 2 C3.65 2 5.3 2 7 2 C6.34 2.66 5.68 3.32 5 4 C4.01 4 3.02 4 2 4 C2 5.32 2 6.64 2 8 C4.31 8 6.62 8 9 8 C9 8.33 9 8.66 9 9 C6.03 9 3.06 9 0 9 C0 6.03 0 3.06 0 0 Z " fill="#010303" transform="translate(134,46)"/>
<path d="M0 0 C1.77503906 0.03480469 1.77503906 0.03480469 3.5859375 0.0703125 C5.36871094 0.09738281 5.36871094 0.09738281 7.1875 0.125 C8.10273438 0.14820312 9.01796875 0.17140625 9.9609375 0.1953125 C9.6309375 1.1853125 9.3009375 2.1753125 8.9609375 3.1953125 C2.0309375 2.7003125 2.0309375 2.7003125 -5.0390625 2.1953125 C-3.0390625 0.1953125 -3.0390625 0.1953125 0 0 Z " fill="#040808" transform="translate(127.0390625,16.8046875)"/>
<path d="M0 0 C4.29 0 8.58 0 13 0 C12.67 0.99 12.34 1.98 12 3 C7.71 2.67 3.42 2.34 -1 2 C-0.67 1.34 -0.34 0.68 0 0 Z " fill="#182A2A" transform="translate(19,42)"/>
<path d="M0 0 C2.31 0 4.62 0 7 0 C6.67 0.969375 6.34 1.93875 6 2.9375 C4.94826637 5.62149574 4.94826637 5.62149574 5 7 C3.35 7 1.7 7 0 7 C0 5.68 0 4.36 0 3 C1.32 2.67 2.64 2.34 4 2 C2.68 1.34 1.36 0.68 0 0 Z " fill="#6BADAD" transform="translate(106,23)"/>
<path d="M0 0 C0.99 0 1.98 0 3 0 C3 2.97 3 5.94 3 9 C2.01 9 1.02 9 0 9 C0 6.03 0 3.06 0 0 Z " fill="#020505" transform="translate(148,46)"/>
<path d="M0 0 C0.99 0 1.98 0 3 0 C3 2.97 3 5.94 3 9 C2.01 9 1.02 9 0 9 C0 6.03 0 3.06 0 0 Z " fill="#000000" transform="translate(71,46)"/>
<path d="M0 0 C3.63 0 7.26 0 11 0 C8 3 8 3 5.73828125 3.07421875 C4.93777344 2.94660156 4.13726562 2.81898437 3.3125 2.6875 C2.10013672 2.50767578 2.10013672 2.50767578 0.86328125 2.32421875 C0.24839844 2.21722656 -0.36648437 2.11023437 -1 2 C-0.67 1.34 -0.34 0.68 0 0 Z " fill="#192B2B" transform="translate(89,42)"/>
<path d="M0 0 C0.66 0.33 1.32 0.66 2 1 C1.67 2.65 1.34 4.3 1 6 C1.99 6.33 2.98 6.66 4 7 C2.0625 7.5625 2.0625 7.5625 0 8 C-1 7 -1 7 -1.125 4 C-1 1 -1 1 0 0 Z " fill="#7BCACA" transform="translate(73,22)"/>
<path d="M0 0 C0.33 0.99 0.66 1.98 1 3 C3.64 3 6.28 3 9 3 C9 3.33 9 3.66 9 4 C5.04 4 1.08 4 -3 4 C-2.01 2.68 -1.02 1.36 0 0 Z " fill="#000000" transform="translate(122,51)"/>
</svg>
